<svg width="82" height="82" viewBox="0 0 82 82" fill="none" xmlns="http://www.w3.org/2000/svg">
<path d="M54.9493 13.1772L36.9959 29.6301C35.1371 31.3366 32.7183 32.2801 30.2071 32.2917L24.8557 32.3034L24.8384 13.1772H15.1632V67.8358H20.4395C23.3894 67.8358 26.1431 66.2575 27.5863 63.6658C27.5978 63.6483 27.6036 63.6309 27.6151 63.6192C28.5734 61.8836 29.0525 58.4533 28.9602 56.112C28.7524 50.7597 27.898 49.3678 27.898 49.3678C27.719 53.0369 23.9205 53.235 23.9205 53.235C26.6222 50.6316 25.1501 48.6631 25.1501 48.6631C20.3645 52.0993 19.1695 48.4301 19.0772 48.0982C19.2273 48.2263 20.5896 49.3736 23.1758 45.7977C25.9121 42.0179 29.5605 35.7163 31.8812 34.0972C34.2076 32.4723 36.4129 32.6062 36.4129 32.6062C36.4129 32.6062 37.6829 30.8707 41.0426 29.4263C44.4024 27.9936 46.5556 30.0961 46.5556 30.0961C43.1208 32.8916 38.4564 37.4809 38.1966 44.0563C37.9888 49.3794 49.3612 58.5115 47.3638 72C48.5588 68.9366 49.0379 65.8673 48.6281 62.07C48.299 59.0066 46.3421 52.606 46.3421 52.606L57.2642 67.83H69.3408L45.7359 35.1164L69.3408 13.1772H54.9493Z" fill="url(#paint0_linear)"/>
<path d="M32.9527 36.7113C32.1907 37.9868 32.1907 38.377 32.1907 38.377C32.1907 38.377 34.8578 37.9227 35.5794 34.7253C35.5851 34.7253 33.8764 35.168 32.9527 36.7113Z" fill="url(#paint1_linear)"/>
<defs>
<linearGradient id="paint0_linear" x1="96.5776" y1="51.664" x2="51.3015" y2="2.87483" gradientUnits="userSpaceOnUse">
<stop stop-color="#E40C5B"/>
<stop offset="1" stop-color="#FF4C3B"/>
</linearGradient>
<linearGradient id="paint1_linear" x1="37.283" y1="37.1146" x2="34.4739" y2="34.0647" gradientUnits="userSpaceOnUse">
<stop stop-color="#E40C5B"/>
<stop offset="1" stop-color="#FF4C3B"/>
</linearGradient>
</defs>
</svg>
