<svg width="32" height="34" viewBox="0 0 32 34" fill="none" xmlns="http://www.w3.org/2000/svg">
<path d="M0.981934 33.2722V28.1599H5.27769C5.56407 28.1599 5.80849 28.2571 6.01093 28.4514C6.21337 28.6458 6.3146 28.8781 6.3146 29.1482V30.5277C6.3146 30.7978 6.21337 31.0301 6.01093 31.2245C5.80849 31.4188 5.56407 31.516 5.27769 31.516L1.98181 31.5231L1.95959 31.516V33.2722H0.981934ZM5.32954 30.5277V29.1482C5.32954 29.1151 5.31225 29.0985 5.27769 29.0985H2.01143C1.97687 29.0985 1.95959 29.1151 1.95959 29.1482V30.5277C1.95959 30.5608 1.97687 30.5774 2.01143 30.5774H5.27769C5.31225 30.5774 5.32954 30.5608 5.32954 30.5277ZM12.1805 33.2722H6.84786V28.1457H7.82552V32.3337H12.1805V33.2722ZM13.6544 28.1528H16.9207C17.2071 28.1528 17.4515 28.2486 17.6539 28.4401C17.8564 28.6325 17.9576 28.8662 17.9576 29.1411V33.2722H16.9725V31.5515H13.6026V33.2722H12.6249V29.1411C12.6249 28.8662 12.7247 28.6325 12.9241 28.4401C13.1246 28.2486 13.368 28.1528 13.6544 28.1528ZM13.6026 29.1411V30.613H16.9725V29.1411C16.9725 29.108 16.9552 29.0914 16.9207 29.0914H13.6544C13.6198 29.0914 13.6026 29.108 13.6026 29.1411ZM24.0975 29.1411V29.5322H23.1125V29.1411C23.1125 29.108 23.0977 29.0914 23.068 29.0914H19.7944C19.7598 29.0914 19.7425 29.108 19.7425 29.1411V30.1935C19.7425 30.2267 19.7598 30.2432 19.7944 30.2432H23.068C23.3495 30.2432 23.5914 30.339 23.7939 30.5305C23.9963 30.723 24.0975 30.9566 24.0975 31.2316V32.2839C24.0975 32.5588 23.9963 32.7925 23.7939 32.985C23.5914 33.1765 23.3495 33.2722 23.068 33.2722H19.7944C19.508 33.2722 19.2651 33.1765 19.0656 32.985C18.8651 32.7925 18.7649 32.5588 18.7649 32.2839V31.8928H19.7425V32.2839C19.7425 32.3171 19.7598 32.3337 19.7944 32.3337H23.068C23.0977 32.3337 23.1125 32.3171 23.1125 32.2839V31.2316C23.1125 31.1984 23.0977 31.1818 23.068 31.1818H19.7944C19.508 31.1818 19.2651 31.0856 19.0656 30.8931C18.8651 30.7016 18.7649 30.4684 18.7649 30.1935V29.1411C18.7649 28.8662 18.8651 28.6325 19.0656 28.4401C19.2651 28.2486 19.508 28.1528 19.7944 28.1528H23.068C23.3495 28.1528 23.5914 28.2486 23.7939 28.4401C23.9963 28.6325 24.0975 28.8662 24.0975 29.1411ZM25.9566 28.1528L27.8971 30.3712L29.8302 28.1528H30.9041V33.2722H29.919V29.518L27.8971 31.8288L25.8677 29.518V33.2722H24.89V28.1528H25.9566Z" fill="#1B6DC1"/>
<path d="M10.6435 12.7822C10.5956 13.2401 10.3885 13.5387 10.0291 13.711C10.2505 13.824 10.5203 13.9104 10.7003 14.083C10.8665 14.2755 10.9567 14.5344 10.9914 14.7866C11.0266 15.2114 10.7088 15.5827 10.287 15.7153C9.81705 15.8742 9.40194 15.6947 8.9865 15.1704C8.93159 15.5949 8.73152 15.9267 8.33753 16.1056C9.04994 16.3316 9.32695 16.6237 9.35512 17.1016C9.36939 17.5131 9.09329 17.911 8.69235 18.0567C8.20847 18.2356 7.81411 18.0695 7.3435 17.5382C7.28851 17.9629 7.10225 18.2748 6.65989 18.4802C7.30306 18.6332 7.71141 18.952 7.68452 19.5956C7.66414 20.0139 7.33976 20.352 6.93175 20.4645C6.45473 20.5903 6.06049 20.4242 5.68653 19.9262C5.65205 20.0191 5.61758 20.112 5.61759 20.1984C5.5829 20.205 5.5829 20.205 5.54833 20.2116C5.39578 19.8265 5.26399 19.4548 5.09763 19.0897C5.11144 19.0698 5.14601 19.0632 5.15974 19.0434C5.29821 19.1895 5.43667 19.3356 5.54754 19.4353C5.72706 19.1765 5.9342 18.878 6.11372 18.6193C5.87135 18.4931 5.58766 18.3403 5.2834 18.1741C5.23523 18.287 5.14552 18.4595 5.05569 18.6319C5.09033 18.6252 5.10414 18.6053 5.13875 18.5989C4.99297 18.0745 4.84023 17.5169 4.68035 16.9262C4.88121 17.1122 5.0128 17.225 5.14412 17.3379C5.2961 17.1189 5.44793 16.9001 5.59991 16.681C5.37842 16.5682 5.15017 16.4221 4.90788 16.2958C4.83883 16.3953 4.77685 16.5281 4.69408 16.6474C4.58955 15.9771 4.40901 15.2868 5.09994 14.7231C4.56732 14.6698 4.67773 14.3381 4.72583 14.0527C4.91138 12.9644 5.21446 11.9227 5.7112 10.9474C5.77349 10.8146 5.9116 10.702 5.97357 10.5692C6.03587 10.4365 6.04255 10.2972 6.10465 10.1645C6.41531 9.67361 6.73971 9.16289 7.11266 8.71181C7.83093 7.84947 8.65292 7.05367 9.62041 6.43703C10.0626 6.14521 10.567 5.89343 11.0164 5.63494C11.1132 5.58179 11.1822 5.4824 11.2719 5.39599C11.2651 5.44926 11.2928 5.49555 11.2859 5.54875C11.5623 5.40955 11.825 5.29024 12.0806 5.13768L12.1153 5.13114C12.6128 4.84617 13.0624 4.93261 13.3948 5.40394C13.9603 4.15661 14.9219 4.36964 15.4829 5.15964C15.5727 4.98714 15.6417 4.80143 15.7312 4.62878C15.8485 4.41647 16.0629 4.32376 16.298 4.33046C16.4087 4.34388 16.5331 4.33724 16.6575 4.33079C17.3213 4.32437 17.4392 4.54353 17.5779 4.94857C17.7028 5.37321 17.4957 5.8444 17.088 6.04315C16.5905 6.3283 16.0508 6.15535 15.6147 5.61758C15.5735 5.84984 15.5045 6.03563 15.3941 6.19473C15.2836 6.35395 15.1246 6.45352 15.0073 6.57943C15.208 6.67899 15.4778 6.76562 15.6578 6.9381C15.8168 7.09751 15.9279 7.36965 15.9419 7.6085C15.9908 8.01337 15.6801 8.41791 15.2584 8.5504C14.7884 8.70928 14.3801 8.56314 13.944 8.02537C13.889 8.45002 13.6819 8.74855 13.295 8.96077C13.9866 9.17348 14.2844 9.47884 14.3126 9.9567C14.3268 10.3682 14.0645 10.7463 13.6844 10.9053C13.2006 11.0841 12.813 10.951 12.3216 10.4068C12.2668 10.8314 12.0805 11.1432 11.6381 11.3487C12.2744 11.4685 12.6827 11.7872 12.6557 12.431C12.6354 12.8491 12.3178 13.2204 11.8891 13.3197C11.4188 13.4794 11.0244 13.3132 10.6435 12.7822ZM8.88231 14.6724C9.06175 14.4138 9.26897 14.1152 9.43461 13.8765C9.19231 13.7501 8.90862 13.5973 8.62504 13.4446C8.47314 13.6635 8.30743 13.9023 8.16934 14.1013C8.41148 14.3138 8.66776 14.5064 8.88231 14.6724ZM13.8533 7.50829C14.0328 7.24957 14.2399 6.95104 14.4057 6.71222C14.1634 6.5859 13.8796 6.43319 13.5961 6.28034C13.4442 6.49926 13.2785 6.73808 13.1404 6.9371C13.3825 7.14955 13.6387 7.34225 13.8533 7.50829ZM6.968 15.8327C6.82991 16.0317 6.66419 16.2705 6.51229 16.4895C6.76825 16.682 7.02432 16.8746 7.23907 17.0406C7.41852 16.782 7.62566 16.4835 7.79137 16.2447C7.53539 16.1383 7.25158 15.9854 6.968 15.8327ZM10.2821 11.0565C10.1302 11.2754 9.96447 11.5142 9.82638 11.7132C10.0823 11.9058 10.3246 12.1183 10.5393 12.2844C10.7188 12.0257 10.9259 11.7272 11.0917 11.4883C10.8494 11.3622 10.5656 11.2093 10.2821 11.0565ZM12.7486 9.10034C12.5063 8.97402 12.2226 8.8212 11.9391 8.66846C11.7872 8.88738 11.6214 9.1262 11.4833 9.32522C11.7393 9.51777 11.9816 9.73017 12.1962 9.89641C12.3758 9.63769 12.583 9.33905 12.7486 9.10034ZM11.1908 7.32757C11.3846 7.48033 11.5784 7.6331 11.7652 7.75267C11.9172 7.53364 12.0552 7.33473 12.2071 7.11581C11.9856 7.00277 11.7643 6.88989 11.5775 6.77032C11.4394 6.96922 11.3152 7.14834 11.1908 7.32757ZM7.22222 14.2998C7.00061 14.1868 6.80008 14.0872 6.59248 13.9544C6.46819 14.1335 6.34399 14.3125 6.2197 14.4916C6.41342 14.6445 6.62102 14.7774 6.79405 14.9168C6.93223 14.7177 7.07032 14.5187 7.22222 14.2998ZM8.27048 11.5795C8.1462 11.7586 8.02191 11.9377 7.89763 12.1169C8.09142 12.2696 8.29902 12.4025 8.4513 12.5287C8.6032 12.3098 8.74121 12.1109 8.8932 11.8918C8.67862 11.812 8.47113 11.6792 8.27048 11.5795ZM10.0944 10.1604C10.2463 9.94147 10.3981 9.72266 10.5363 9.52352C10.3147 9.4106 10.1142 9.31101 9.92733 9.19143C9.80304 9.37055 9.67876 9.54967 9.55447 9.72879C9.72763 9.86834 9.9213 10.021 10.0944 10.1604ZM9.6634 8.01664C9.7738 7.85754 9.87054 7.71811 9.98094 7.55901C9.82192 7.48599 9.67648 7.39291 9.53823 7.33317C9.45537 7.45258 9.35871 7.5919 9.27585 7.71131C9.40733 7.82402 9.53189 7.90374 9.6634 8.01664ZM5.96184 12.4874C6.07248 12.587 6.20399 12.6999 6.34931 12.7929C6.45971 12.6338 6.55645 12.4944 6.66693 12.3351C6.50791 12.2621 6.34858 12.189 6.22414 12.1094C6.12763 12.2485 6.0447 12.368 5.96184 12.4874ZM8.00635 10.4048C8.10302 10.2654 8.21349 10.1062 8.31016 9.96692C8.17191 9.90718 8.04723 9.82739 7.9089 9.76776C7.82604 9.88718 7.74326 10.0065 7.66041 10.1259C7.77092 10.2254 7.89572 10.3052 8.00635 10.4048ZM12.8687 11.4762C13.1725 11.0383 13.7738 10.906 14.2306 11.1984C14.6872 11.4906 14.8332 12.1011 14.5086 12.5257C14.2048 12.9635 13.5827 13.0825 13.126 12.7903C12.6901 12.5113 12.5649 11.914 12.8687 11.4762ZM14.8038 10.4156C14.347 10.1233 14.208 9.54592 14.5118 9.10807C14.8157 8.67023 15.4517 8.53124 15.8946 8.84344C16.3512 9.13566 16.4556 9.71975 16.1518 10.1576C15.8619 10.5754 15.2534 10.6746 14.8038 10.4156ZM11.2116 13.8643C11.5154 13.4265 12.1377 13.3074 12.5944 13.5997C13.051 13.8919 13.1762 14.4893 12.8724 14.9271C12.5686 15.3648 11.9603 15.4639 11.5036 15.1717C11.026 14.866 10.9217 14.2821 11.2116 13.8643ZM17.5446 6.42225C18.0013 6.71446 18.1403 7.29183 17.8365 7.72967C17.5535 8.18069 16.8967 8.30639 16.4401 8.01417C15.9832 7.72181 15.858 7.12454 16.1618 6.68669C16.4655 6.24896 17.0878 6.12988 17.5446 6.42225ZM8.15499 19.9545C7.69814 19.6622 7.57303 19.0648 7.87683 18.6269C8.18056 18.1892 8.82369 18.0835 9.28042 18.3758C9.72322 18.6879 9.82758 19.272 9.53766 19.6898C9.23385 20.1277 8.6116 20.2468 8.15499 19.9545ZM9.81203 17.5664C9.35519 17.2741 9.22999 16.6768 9.51999 16.2588C9.8238 15.821 10.4599 15.682 10.9029 15.9943C11.3595 16.2865 11.4639 16.8706 11.1601 17.3084C10.8908 17.7397 10.2686 17.8586 9.81203 17.5664ZM6.18534 21.0218C6.48924 20.6702 6.97312 20.4913 7.40204 20.6508C7.83085 20.8103 8.11482 21.2219 8.04614 21.6666C7.97754 22.1111 7.60443 22.476 7.15489 22.4755C7.03062 22.482 6.85072 22.3957 6.76073 22.3093C6.53906 22.0239 6.3383 21.7516 6.16512 21.4397C6.12331 21.3269 6.17857 21.1611 6.18534 21.0218ZM16.2771 10.8411C16.7129 11.1201 16.8174 11.7042 16.5412 12.1023C16.2512 12.5202 15.6427 12.6193 15.2068 12.3404C14.7916 12.0747 14.6734 11.5106 14.9634 11.0925C15.2396 10.6945 15.8619 10.5754 16.2771 10.8411ZM13.3203 13.4606C13.6102 13.0428 14.2186 12.9436 14.6545 13.2226C15.0765 13.5214 15.1811 14.1055 14.8843 14.4902C14.5871 14.8749 13.9995 14.9874 13.5844 14.7218C13.1554 14.476 13.0303 13.8786 13.3203 13.4606ZM16.8846 9.96557C16.4488 9.68664 16.3443 9.10247 16.6342 8.68464C16.9242 8.2667 17.5326 8.16752 17.9685 8.44645C18.3698 8.73218 18.4882 9.29634 18.212 9.69438C17.9428 10.1255 17.3205 10.2445 16.8846 9.96557ZM12.9837 15.6305C13.4196 15.9094 13.524 16.4936 13.2341 16.9114C12.9442 17.3292 12.3148 17.4152 11.9135 17.1296C11.5122 16.8441 11.394 16.2798 11.6701 15.8818C11.9395 15.4506 12.5617 15.3316 12.9837 15.6305ZM18.2774 6.31642C18.5674 5.89848 19.1551 5.78601 19.6049 6.04512C20.0408 6.32405 20.159 6.88832 19.869 7.30626C19.5929 7.7043 19.005 7.81669 18.576 7.57087C18.1471 7.32513 18.0083 6.74754 18.2774 6.31642ZM9.99246 18.2567C10.2824 17.8388 10.8908 17.7397 11.306 18.0054C11.7419 18.2843 11.8464 18.8684 11.5564 19.2863C11.2802 19.6844 10.6924 19.7967 10.2428 19.5377C9.84139 19.2521 9.70246 18.6746 9.99246 18.2567ZM9.6697 20.4066C10.0917 20.7054 10.1962 21.2896 9.89947 21.6743C9.58847 22.0788 8.98015 22.1781 8.55811 21.8792C8.15659 21.5936 8.05235 21.0095 8.3493 20.6248C8.65998 20.2202 9.26834 20.1212 9.6697 20.4066ZM18.9862 9.52885C18.571 9.26313 18.4599 8.7322 18.7361 8.33416C19.0123 7.93612 19.586 7.84348 20.0013 8.1092C20.4026 8.39494 20.493 8.91247 20.2168 9.31051C19.9545 9.68853 19.4014 9.79457 18.9862 9.52885ZM15.4221 13.1103C15.6983 12.7122 16.2513 12.6063 16.6665 12.872C17.0817 13.1378 17.2135 13.682 16.9028 14.0866C16.6265 14.4848 16.0528 14.5773 15.6722 14.305C15.2779 14.0526 15.1597 13.4884 15.4221 13.1103ZM18.3442 10.4973C18.7594 10.763 18.8568 11.3138 18.5736 11.6787C18.2974 12.0768 17.7237 12.1693 17.3085 11.9036C16.9071 11.6179 16.8168 11.1003 17.0929 10.7023C17.3899 10.3175 17.9291 10.2317 18.3442 10.4973ZM10.4511 20.2744C10.7273 19.8764 11.2803 19.7704 11.6955 20.0362C12.1107 20.3019 12.2288 20.866 11.9318 21.2508C11.6555 21.6489 11.0957 21.7215 10.7012 21.4691C10.2861 21.2035 10.1887 20.6525 10.4511 20.2744ZM12.3583 19.081C11.9431 18.8153 11.8319 18.2844 12.1081 17.8864C12.3843 17.4884 12.958 17.3957 13.3732 17.6614C13.7884 17.9272 13.865 18.4647 13.5888 18.8628C13.3264 19.2409 12.7735 19.3467 12.3583 19.081ZM13.765 15.4984C14.0413 15.1003 14.5943 14.9943 14.9888 15.2468C15.404 15.5125 15.5358 16.0567 15.2388 16.4416C14.9626 16.8396 14.4097 16.9454 13.9945 16.6797C13.6209 16.4406 13.5096 15.9097 13.765 15.4984ZM20.407 5.92614C20.7039 5.54139 21.243 5.45547 21.6582 5.72119C22.0734 5.98691 22.1708 6.53764 21.86 6.9424C21.563 7.32716 21.0031 7.3999 20.6225 7.12745C20.242 6.85519 20.1446 6.30428 20.407 5.92614ZM9.04427 23.8571C8.62906 23.5914 8.53169 23.0407 8.81491 22.6757C9.0911 22.2777 9.66477 22.1851 10.08 22.4509C10.4814 22.7365 10.5718 23.254 10.2955 23.6522C10.0124 24.017 9.45947 24.1228 9.04427 23.8571ZM12.1055 22.0806C12.5 22.333 12.5698 22.8374 12.3075 23.2155C12.038 23.5604 11.5196 23.6597 11.139 23.3874C10.7445 23.135 10.6748 22.6305 10.9372 22.2524C11.2064 21.9074 11.7319 21.8415 12.1055 22.0806ZM18.7128 12.5149C19.1073 12.7674 19.2116 13.2652 18.9493 13.6432C18.687 14.0212 18.182 14.1006 17.7877 13.8482C17.3934 13.5959 17.2891 13.0981 17.5514 12.72C17.8206 12.375 18.3392 12.2758 18.7128 12.5149ZM14.2442 17.5293C14.5066 17.1511 15.0251 17.052 15.4402 17.3177C15.8138 17.5568 15.9181 18.0546 15.6558 18.4326C15.3935 18.8107 14.875 18.9099 14.4599 18.6443C14.0792 18.3719 13.9957 17.8875 14.2442 17.5293ZM21.1087 9.10531C20.7142 8.85287 20.6101 8.35501 20.8724 7.9771C21.1348 7.59885 21.6395 7.51963 22.027 7.73888C22.4214 7.99131 22.5257 8.48913 22.2633 8.86727C22.0009 9.24522 21.4962 9.32455 21.1087 9.10531ZM16.1376 16.2695C15.7432 16.0171 15.639 15.5194 15.9014 15.1412C16.1637 14.7632 16.6685 14.6838 17.0559 14.9031C17.4504 15.1556 17.5546 15.6535 17.2923 16.0314C17.0298 16.4095 16.5252 16.4887 16.1376 16.2695ZM13.7419 19.6791C14.1363 19.9315 14.2405 20.4294 13.9783 20.8073C13.7159 21.1855 13.2111 21.2647 12.8236 21.0454C12.4292 20.7929 12.325 20.2952 12.5873 19.9172C12.8496 19.5393 13.3474 19.4266 13.7419 19.6791ZM19.2153 10.365C19.4777 9.98678 19.9961 9.88777 20.3905 10.1401C20.7848 10.3925 20.8686 10.8771 20.6405 11.2485C20.3781 11.6267 19.8596 11.7258 19.4653 11.4734C19.071 11.2211 18.9529 10.7432 19.2153 10.365ZM19.4935 5.34156C19.2172 5.73971 18.7265 5.88531 18.2976 5.72577C17.8479 5.55294 17.5985 5.13467 17.6671 4.69005C17.7016 4.51107 17.736 4.41799 17.9782 4.45803C18.414 4.56448 18.8704 4.59794 19.3062 4.70439C19.7005 4.78427 19.7349 4.86397 19.5625 5.24216C19.5349 5.28185 19.5073 5.32165 19.4935 5.34156ZM17.64 18.0358C17.3846 18.3607 16.9144 18.4334 16.5407 18.1943C16.1808 17.9352 16.1043 17.4839 16.3737 17.139C16.6431 16.794 17.1338 16.7346 17.4937 16.9937C17.8466 17.2196 17.9093 17.6908 17.64 18.0358ZM11.3889 24.3231C11.6374 23.965 12.1213 23.8724 12.495 24.1115C12.8478 24.3373 12.9451 24.802 12.7105 25.1402C12.4619 25.4984 11.9779 25.591 11.6042 25.3519C11.2306 25.1127 11.1541 24.6615 11.3889 24.3231ZM19.6878 12.3629C19.9363 12.0046 20.4064 11.932 20.8007 12.1844C21.1537 12.4102 21.251 12.8749 20.9816 13.2198C20.7332 13.5779 20.263 13.6507 19.8685 13.3982C19.5156 13.1724 19.4392 12.7211 19.6878 12.3629ZM21.3309 9.99477C21.5794 9.63664 22.0634 9.54402 22.4233 9.80296C22.7761 10.0287 22.8734 10.4935 22.6249 10.8516C22.3763 11.2098 21.8923 11.3025 21.5325 11.0434C21.1727 10.7843 21.0961 10.3331 21.3309 9.99477ZM14.9182 20.5758C14.5446 20.3366 14.4473 19.8719 14.7167 19.5271C14.9515 19.1888 15.4354 19.0962 15.8091 19.3353C16.1827 19.5744 16.28 20.039 16.0107 20.384C15.7622 20.7421 15.2919 20.8149 14.9182 20.5758ZM13.0597 21.9152C13.3082 21.557 13.7784 21.4843 14.1727 21.7366C14.5256 21.9625 14.623 22.4271 14.3536 22.7721C14.1051 23.1303 13.6349 23.203 13.2404 22.9506C12.8876 22.7246 12.8111 22.2735 13.0597 21.9152ZM22.988 7.60665C23.2365 7.24841 23.7205 7.15579 24.0942 7.39494C24.447 7.62073 24.5443 8.08536 24.3096 8.42358C24.0611 8.78181 23.5771 8.87443 23.2034 8.63529C22.8297 8.39614 22.7532 7.94498 22.988 7.60665ZM18.0169 14.7709C18.2655 14.4127 18.7494 14.32 19.1231 14.5592C19.4967 14.7983 19.5732 15.2496 19.3385 15.5879C19.09 15.9461 18.6059 16.0388 18.2323 15.7996C17.8795 15.5739 17.7684 15.129 18.0169 14.7709ZM19.4988 16.6102C19.8516 16.8359 19.9212 17.254 19.6865 17.5923C19.4656 17.9106 19.0301 17.9769 18.6979 17.7644C18.345 17.5385 18.2754 17.1203 18.5101 16.782C18.731 16.4635 19.1458 16.3843 19.4988 16.6102ZM21.1558 14.222C21.5086 14.4478 21.5782 14.866 21.3435 15.2042C21.1226 15.5226 20.687 15.5889 20.3549 15.3764C20.0019 15.1505 19.9323 14.7323 20.1671 14.394C20.3879 14.0755 20.8029 13.9962 21.1558 14.222ZM21.8033 11.9925C22.038 11.6542 22.4736 11.5881 22.8265 11.8139C23.1448 12.0464 23.2282 12.4446 22.9934 12.7829C22.7587 13.1212 22.3231 13.1874 21.9701 12.9615C21.652 12.7292 21.5685 12.3309 21.8033 11.9925ZM18.0569 19.9406C17.8222 20.2789 17.373 20.3649 17.0545 20.1325C16.7224 19.9199 16.6181 19.5085 16.853 19.17C17.0878 18.8316 17.5371 18.7457 17.8555 18.9782C18.1738 19.2107 18.2573 19.6089 18.0569 19.9406ZM13.7059 24.9151C13.3532 24.6893 13.2835 24.2711 13.5183 23.9328C13.7391 23.6145 14.1747 23.5484 14.5068 23.7609C14.8598 23.9868 14.9294 24.4048 14.6946 24.7431C14.4738 25.0616 14.0381 25.1276 13.7059 24.9151ZM24.4698 9.44592C24.8226 9.67171 24.8922 10.0899 24.6575 10.4282C24.4366 10.7465 24.0011 10.8127 23.6689 10.6001C23.316 10.3743 23.2464 9.9561 23.4811 9.61788C23.7019 9.29937 24.1169 9.22006 24.4698 9.44592ZM15.1614 21.5647C15.3961 21.2265 15.8317 21.1603 16.1846 21.3862C16.5167 21.5987 16.5864 22.0168 16.3654 22.3352C16.1306 22.6735 15.6951 22.7396 15.3421 22.5138C15.0103 22.3012 14.9405 21.8831 15.1614 21.5647ZM23.202 13.8649C23.5135 14.0641 23.5762 14.449 23.369 14.7476C23.1618 15.0462 22.7609 15.1056 22.4494 14.9062C22.1379 14.7069 22.0755 14.3222 22.2827 14.0235C22.476 13.7449 22.8908 13.6656 23.202 13.8649ZM13.9838 25.9838C14.1909 25.6854 14.5848 25.5926 14.8961 25.7919C15.2076 25.9912 15.3048 26.3696 15.0978 26.668C14.8907 26.9664 14.4965 27.0591 14.1852 26.8599C13.8739 26.6607 13.7767 26.2823 13.9838 25.9838ZM19.8881 18.6409C20.1995 18.8402 20.2622 19.2251 20.055 19.5238C19.8479 19.8222 19.4469 19.8817 19.1353 19.6823C18.8239 19.483 18.7615 19.0982 18.9687 18.7997C19.162 18.521 19.5768 18.4417 19.8881 18.6409ZM24.1272 12.5315C23.8158 12.3323 23.7187 11.954 23.9258 11.6554C24.133 11.3569 24.5269 11.2642 24.8382 11.4634C25.1497 11.6627 25.2469 12.0412 25.0398 12.3396C24.8328 12.638 24.4386 12.7308 24.1272 12.5315ZM17.2978 21.2077C17.5049 20.9092 17.8989 20.8164 18.2102 21.0156C18.5217 21.215 18.6189 21.5933 18.4118 21.8919C18.2047 22.1904 17.8105 22.2829 17.4993 22.0837C17.1742 21.9044 17.0907 21.5062 17.2978 21.2077ZM15.8421 24.4719C15.5307 24.2726 15.4337 23.8942 15.6408 23.5958C15.8478 23.2974 16.2419 23.2045 16.5531 23.4037C16.8647 23.6031 16.9618 23.9816 16.7548 24.28C16.5477 24.5784 16.1328 24.6579 15.8421 24.4719ZM20.6118 16.4316C20.819 16.133 21.2337 16.0536 21.5242 16.2395C21.8357 16.4389 21.9191 16.8371 21.7258 17.1157C21.5187 17.4143 21.1039 17.4936 20.8133 17.3076C20.502 17.1083 20.4047 16.7301 20.6118 16.4316ZM10.609 25.6632C10.5467 25.6233 10.4706 25.6034 10.4291 25.5768C10.0346 25.3244 9.64017 25.0719 9.22496 24.8062C9.3767 24.5011 9.63252 24.3487 9.97132 24.3354C10.3103 24.3224 10.6216 24.5217 10.7533 24.8071C10.8711 25.1126 10.8577 25.3914 10.609 25.6632ZM23.5778 15.9157C23.8476 16.0884 23.9239 16.4536 23.7237 16.6989C23.5442 16.9576 23.1432 17.0171 22.8735 16.8445C22.6173 16.6518 22.5616 16.3 22.7273 16.0612C22.9414 15.7957 23.3079 15.743 23.5778 15.9157ZM24.4188 13.6664C24.5983 13.4077 24.9649 13.3549 25.2348 13.5276C25.5047 13.7003 25.5673 14.0851 25.3878 14.3438C25.1876 14.5892 24.8212 14.6422 24.5513 14.4695C24.295 14.2769 24.2187 13.9119 24.4188 13.6664ZM26.2081 12.0814C25.9382 11.9087 25.8618 11.5436 26.0412 11.285C26.2207 11.0263 26.6011 10.9534 26.871 11.1261C27.1409 11.2988 27.1965 11.6507 27.017 11.9095C26.8583 12.1814 26.478 12.2541 26.2081 12.0814ZM20.2429 20.6785C20.5128 20.8512 20.5892 21.2163 20.4097 21.475C20.2302 21.7337 19.8499 21.8065 19.5595 21.6206C19.2895 21.4479 19.2476 21.0762 19.4133 20.8373C19.6135 20.5918 19.9939 20.5191 20.2429 20.6785ZM16.1199 25.6267C16.2995 25.368 16.659 25.2819 16.9289 25.4546C17.1987 25.6273 17.2958 26.0056 17.1163 26.2643C16.9368 26.5231 16.5567 26.5959 16.2868 26.4232C16.0169 26.2505 15.9404 25.8854 16.1199 25.6267ZM18.6068 23.0799C18.8767 23.2526 18.953 23.6176 18.7735 23.8763C18.594 24.135 18.2138 24.2079 17.9232 24.0219C17.6533 23.8491 17.6113 23.4776 17.7771 23.2386C17.9565 22.9798 18.3369 22.9071 18.6068 23.0799ZM21.091 18.4624C21.2704 18.2038 21.6508 18.1311 21.8998 18.2905C22.1697 18.4632 22.2668 18.8415 22.0667 19.0869C21.8872 19.3456 21.5208 19.3985 21.2509 19.2258C20.9881 19.0862 20.9115 18.7212 21.091 18.4624ZM26.0113 8.99548C26.219 9.30101 26.4199 9.57323 26.5861 9.85189C26.6345 9.91157 26.5796 10.0776 26.5172 10.124C26.3168 10.2832 26.0541 10.3161 25.8119 10.19C25.5697 10.0638 25.4175 9.85137 25.4517 9.58592C25.4929 9.2672 25.6864 9.07473 26.0113 8.99548ZM8.27699 24.0558C7.86148 23.6175 7.45316 23.2125 7.05845 22.7876C7.37646 22.5887 7.77746 22.6155 8.07517 22.8347C8.42109 23.1134 8.5045 23.5117 8.27699 24.0558ZM23.2274 18.1055C23.3793 17.8865 23.7042 17.8071 23.9326 17.9532C24.1611 18.0995 24.2442 18.4113 24.0922 18.6303C23.9403 18.8492 23.6154 18.9286 23.387 18.7824C23.1587 18.6363 23.0756 18.3243 23.2274 18.1055ZM18.9615 25.1175C19.19 25.2637 19.2731 25.5755 19.1212 25.7944C18.9693 26.0134 18.6444 26.0928 18.416 25.9467C18.1876 25.8005 18.1044 25.4886 18.2564 25.2696C18.4082 25.0508 18.7194 24.9912 18.9615 25.1175ZM22.4064 21.0424C22.2508 21.26 21.9403 21.3149 21.7133 21.1652C21.4861 21.0154 21.4284 20.7176 21.5841 20.4998C21.7397 20.2821 22.0502 20.227 22.2774 20.3768C22.5043 20.5266 22.5621 20.8246 22.4064 21.0424ZM19.9134 22.8816C20.0653 22.6627 20.3902 22.5832 20.6186 22.7294C20.8471 22.8756 20.9301 23.1874 20.7782 23.4064C20.6263 23.6254 20.3014 23.7047 20.073 23.5585C19.824 23.3992 19.7615 23.1005 19.9134 22.8816ZM24.8982 15.6974C25.0501 15.4785 25.382 15.4323 25.6103 15.5783C25.8385 15.7244 25.8874 16.0431 25.7355 16.262C25.5836 16.4809 25.2518 16.5272 25.0235 16.3811C24.7951 16.235 24.7325 15.9363 24.8982 15.6974ZM27.3776 13.8782C27.222 14.0959 26.9114 14.1509 26.6842 14.0011C26.4573 13.8514 26.3995 13.5535 26.5551 13.3356C26.7107 13.118 27.0211 13.0629 27.2483 13.2127C27.4754 13.3624 27.5333 13.6604 27.3776 13.8782ZM27.6291 15.2611C27.8159 15.3806 27.8716 15.6462 27.7473 15.8253C27.6092 16.0243 27.3464 16.0571 27.1389 15.9244C26.9521 15.8048 26.9173 15.5528 27.0416 15.3736C27.1797 15.1746 27.4215 15.1282 27.6291 15.2611ZM21.001 24.8135C21.1878 24.933 21.2435 25.1985 21.0984 25.3642C20.9741 25.5433 20.6768 25.5829 20.5039 25.4435C20.3307 25.304 20.2822 25.0717 20.4065 24.8926C20.5378 24.7469 20.8142 24.6939 21.001 24.8135ZM23.6301 6.72446C23.022 7.08236 22.2744 6.5179 22.4053 5.94066C22.8205 6.20638 23.215 6.45881 23.6301 6.72446ZM22.1816 23.0688C21.9948 22.9492 21.9392 22.6837 22.0635 22.5046C22.1877 22.3255 22.4643 22.2726 22.6372 22.4122C22.824 22.5317 22.8589 22.7838 22.7484 22.943C22.6312 23.1554 22.3683 23.1883 22.1816 23.0688ZM23.8387 20.6807C23.6518 20.5611 23.5962 20.2956 23.7205 20.1165C23.8448 19.9374 24.1213 19.8846 24.2943 20.024C24.481 20.1435 24.5159 20.3958 24.4055 20.5549C24.3021 20.7473 24.0461 20.8135 23.8387 20.6807ZM25.4956 18.2927C25.3088 18.1731 25.2532 17.9076 25.3775 17.7285C25.5017 17.5494 25.7783 17.4965 25.9513 17.636C26.138 17.7555 26.1729 18.0076 26.0624 18.1669C25.959 18.3593 25.7031 18.4255 25.4956 18.2927ZM13.1549 26.7464C12.7467 26.6002 12.3248 26.4739 11.9166 26.3276C12.0615 26.0755 12.3449 25.9694 12.6355 26.0692C12.9743 26.1425 13.1682 26.3813 13.1549 26.7464ZM22.5847 24.9935C22.5915 24.8542 22.5429 24.7081 22.5912 24.5953C22.6671 24.4427 22.84 24.4096 22.9853 24.5026C23.1514 24.6089 23.1999 24.755 23.0824 24.8811C22.9927 24.9672 22.8405 25.0137 22.7232 25.0534C22.6677 25.0466 22.6263 25.0201 22.5847 24.9935ZM28.0671 17.3518C28.0602 17.4912 28.1088 17.6372 28.0604 17.7501C27.9639 17.8893 27.791 17.9223 27.6249 17.8161C27.459 17.7098 27.4242 17.5439 27.5622 17.4312C27.6521 17.3449 27.811 17.3318 27.9425 17.272C27.984 17.2986 28.0254 17.3251 28.0671 17.3518ZM24.2557 22.6718C24.2485 22.4662 24.1723 22.2737 24.2481 22.2074C24.338 22.1211 24.5039 22.1412 24.6422 22.1148C24.6701 22.2476 24.7395 22.4068 24.6842 22.4865C24.6705 22.5924 24.477 22.6123 24.2557 22.6718ZM25.8014 19.7528C26.0366 19.7596 26.2163 19.6734 26.2854 19.7464C26.3755 19.8328 26.3549 19.9918 26.3826 20.1247C26.2443 20.1512 26.0785 20.2175 25.9954 20.1643C25.8988 20.1311 25.8778 19.9454 25.8014 19.7528ZM19.9701 4.87075C20.3574 5.00364 20.6894 5.12994 21.0562 5.24951C20.5724 5.42849 20.1849 5.29544 19.9701 4.87075Z" fill="url(#paint0_linear)"/>
<defs>
<linearGradient id="paint0_linear" x1="9.4414" y1="24.9447" x2="21.8365" y2="5.5766" gradientUnits="userSpaceOnUse">
<stop stop-color="#339DCC"/>
<stop offset="1" stop-color="#1C3B84"/>
</linearGradient>
</defs>
</svg>
