<svg width="308" height="308" viewBox="0 0 308 308" fill="none" xmlns="http://www.w3.org/2000/svg">
<circle cx="154" cy="154" r="151" fill="#1B1B1B" stroke="#BDBDBD" stroke-width="6"/>
<path d="M189.91 75L139.411 120.871C134.182 125.629 127.379 128.259 120.315 128.292L105.263 128.324L105.214 75H78V227.39H92.8412C101.139 227.39 108.884 222.99 112.943 215.764C112.976 215.715 112.992 215.667 113.025 215.634C115.72 210.795 117.068 201.231 116.808 194.704C116.223 179.781 113.82 175.901 113.82 175.901C113.317 186.13 102.632 186.682 102.632 186.682C110.232 179.424 106.091 173.936 106.091 173.936C92.6301 183.516 89.2689 173.286 89.0091 172.361C89.4313 172.718 93.2634 175.917 100.538 165.947C108.234 155.409 118.497 137.84 125.024 133.326C131.568 128.795 137.771 129.169 137.771 129.169C137.771 129.169 141.343 124.33 150.793 120.303C160.244 116.309 166.3 122.17 166.3 122.17C156.639 129.964 143.519 142.76 142.788 161.092C142.204 175.933 174.192 201.394 168.573 239C171.935 230.459 173.282 221.902 172.13 211.315C171.204 202.774 165.699 184.929 165.699 184.929L196.421 227.374H230.39L163.994 136.167L230.39 75H189.91Z" fill="url(#kar0-linear)"/>
<path d="M128.885 139.74C126.705 143.357 126.705 144.464 126.705 144.464C126.705 144.464 134.335 143.176 136.4 134.108C136.416 134.108 131.527 135.364 128.885 139.74Z" fill="url(#kar1-linear)"/>
<defs>
<linearGradient id="kar0-linear" x1="237.668" y1="575.2" x2="404.586" y2="492.634" gradientUnits="userSpaceOnUse">
<stop stop-color="#FF4C3B"/>
<stop offset="1" stop-color="#E40C5B"/>
</linearGradient>
<linearGradient id="kar1-linear" x1="136.863" y1="165.692" x2="147.45" y2="160.416" gradientUnits="userSpaceOnUse">
<stop stop-color="#FF4C3B"/>
<stop offset="1" stop-color="#E40C5B"/>
</linearGradient>
</defs>
</svg>
