<?xml version="1.0" encoding="UTF-8"?>
<svg width="300px" height="300px" viewBox="0 0 300 300" version="1.1" xmlns="http://www.w3.org/2000/svg" xmlns:xlink="http://www.w3.org/1999/xlink">
    <title>taiKSM</title>
    <g id="页面-1" stroke="none" stroke-width="1" fill="none" fill-rule="evenodd">
        <g id="taiKSM" fill-rule="nonzero">
            <g id="编组">
                <circle id="椭圆形" fill="#FFFFFF" cx="150" cy="150" r="149"></circle>
                <path d="M150,12 C186.9,12 221.5,26.4 247.6,52.4 C273.7,78.5 288,113.1 288,150 C288,186.9 273.6,221.5 247.6,247.6 C221.6,273.7 186.9,288 150,288 C113.1,288 78.5,273.6 52.4,247.6 C26.3,221.6 12,186.9 12,150 C12,113.1 26.4,78.5 52.4,52.4 C78.5,26.4 113.1,12 150,12 M150,0 C67.2,0 0,67.2 0,150 C0,232.8 67.2,300 150,300 C232.8,300 300,232.8 300,150 C300,67.2 232.8,0 150,0 L150,0 Z" id="形状" fill="#B026CF"></path>
            </g>
            <path d="M215.4,110.7 C212.7,108.6 209.5,105.7 203.7,105 C198.2,104.3 192.7,107.9 188.9,110.4 C185.1,112.8 178,119.9 175.1,122.1 C172.2,124.3 164.6,126.3 152.5,133.5 C140.4,140.8 92.9,171.3 92.9,171.3 L105.3,171.5 L50.2,199.9 L55.7,199.9 L47.8,205.9 C47.8,205.9 54.8,207.8 60.7,204 L60.7,205.7 C60.7,205.7 126.3,179.8 139,186.5 L131.3,188.8 C132,188.8 144.4,189.6 144.4,189.6 C144.7,192.2 145.6,194.7 146.9,196.9 C148.3,199.1 150.1,201 152.3,202.4 C159.8,207.3 160,210.1 160,210.1 C160,210.1 156.1,211.7 156.1,213.7 C156.1,213.7 161.9,211.9 167.2,212.1 C170.6,212.2 174,212.8 177.2,213.7 C177.2,213.7 176.8,211.5 171.6,210.1 C166.4,208.7 161.2,203 158.7,199.9 C157.2,197.9 156.1,195.6 155.8,193.1 C155.4,190.6 155.7,188.1 156.6,185.8 C158.4,181.1 164.7,178.5 177.7,171.8 C193,163.9 196.5,158 198.7,153.4 C200.9,148.8 204.1,139.7 205.9,135.4 C208.2,129.9 210.9,126.9 213.3,125.2 C215.6,123.4 225.9,119.6 225.9,119.6 C225.9,119.6 217.9,112.8 215.4,110.7 Z" id="路径" fill="#B026CF"></path>
            <g id="编组" transform="translate(184.500000, 194.000000)">
                <circle id="椭圆形" fill="#B026CF" cx="33" cy="33" r="33"></circle>
                <g transform="translate(11.000000, 13.000000)" fill="#FFFFFF" id="路径">
                    <path d="M22,5.9 C22,5.9 18.9,12.3 4.2,25.4 L22,5.9 Z"></path>
                    <path d="M22,11.9 C22,11.9 19.4,20.3 2.8,28 L22,11.9 Z"></path>
                    <path d="M22,17.8 C22,17.8 19.9,26.6 1.4,30.4 L22,17.8 Z"></path>
                    <path d="M22,23.8 C22,23.8 20.4,33 0,33 L22,23.8 Z"></path>
                    <path d="M22,0 C22,0 18.4,7.5 5.6,23 L22,0 C22.1,0 25.6,7.5 38.4,23 L22,0 Z"></path>
                    <path d="M22,5.9 C22,5.9 25.1,12.3 39.8,25.4 L22,5.9 Z"></path>
                    <path d="M22,11.9 C22,11.9 24.6,20.3 41.2,28 L22,11.9 Z"></path>
                    <path d="M22,17.8 C22,17.8 24.1,26.6 42.6,30.4 L22,17.8 Z"></path>
                    <path d="M22,23.8 C22,23.8 23.6,33 44,33 L22,23.8 Z"></path>
                </g>
            </g>
        </g>
    </g>
</svg>