<svg width="34" height="34" viewBox="0 0 34 34" fill="none" xmlns="http://www.w3.org/2000/svg">
  <circle cx="17" cy="17" r="16" fill="white" stroke="#D6D3DE" />
  <path fill-rule="evenodd" clip-rule="evenodd" d="M16.9999 31.0131C24.7389 31.0131 31.013 24.7397 31.013 17C31.013 9.26035 24.7389 2.98697 16.9999 2.98697C9.26086 2.98697 2.98682 9.26232 2.98682 17C2.98682 24.7378 9.2602 31.0131 16.9999 31.0131ZM17.0571 29.6986C24.0699 29.6986 29.7543 24.0135 29.7543 17.0007C29.7543 9.98792 24.0699 4.30277 17.0571 4.30277C10.0443 4.30277 4.35914 9.98529 4.35914 17C4.35914 24.0148 10.0443 29.698 17.0571 29.698V29.6986ZM16.9999 28.7259C19.3189 28.7259 21.5859 28.0382 23.5141 26.7499C25.4423 25.4615 26.9451 23.6302 27.8326 21.4877C28.72 19.3452 28.9522 16.9877 28.4998 14.7132C28.0474 12.4388 26.9307 10.3495 25.2909 8.70972C23.6511 7.06992 21.5618 5.95321 19.2874 5.50079C17.0129 5.04837 14.6553 5.28056 12.5128 6.16802C10.3703 7.05547 8.53912 8.55832 7.25073 10.4865C5.96235 12.4147 5.27468 14.6817 5.27468 17.0007C5.27485 20.1103 6.51026 23.0925 8.70914 25.2913C10.908 27.49 13.8903 28.7253 16.9999 28.7253V28.7259ZM17.0282 27.2964C19.07 27.2964 21.066 26.6909 22.7638 25.5566C24.4615 24.4222 25.7848 22.8098 26.5662 20.9234C27.3476 19.037 27.5521 16.9612 27.1538 14.9586C26.7555 12.9559 25.7723 11.1164 24.3285 9.67252C22.8848 8.22866 21.0453 7.24535 19.0427 6.84692C17.04 6.44849 14.9643 6.65285 13.0778 7.43414C11.1913 8.21544 9.57889 9.53859 8.4444 11.2363C7.30991 12.934 6.70431 14.9299 6.70418 16.9718C6.70418 19.7099 7.79188 22.3358 9.728 24.2719C11.6641 26.208 14.2901 27.2958 17.0282 27.2958V27.2964ZM17.0512 18.7174C16.5446 18.7169 16.0389 18.7591 15.5395 18.8436L16.292 17.5436C16.5457 17.5265 16.7994 17.5179 17.0512 17.5179C17.6431 17.5183 18.234 17.5656 18.8185 17.6593L15.9056 12.6143L11.0538 21.0145L10.3604 19.8137L15.8944 10.2285L15.9056 10.2482L15.9168 10.2291L22.5957 21.7966H21.2089L19.6479 19.0934C18.8055 18.841 17.9305 18.7141 17.0512 18.7168V18.7174ZM23.0248 21.0342L16.5589 9.83478H17.9457L23.7182 19.8334L23.0248 21.0342ZM16.6075 15.3609L13.9523 19.9616C14.9026 19.675 16.0206 19.5469 17.0755 19.5469C17.1609 19.5469 17.2464 19.5469 17.3318 19.5501C17.9308 19.5643 18.5277 19.6263 19.1169 19.7355L20.0028 21.2701C19.0654 20.9249 18.0745 20.7469 17.0755 20.7444C15.6198 20.7392 14.1859 21.097 12.9033 21.7854L12.923 21.7506L12.8961 21.7966H11.5093L15.9187 14.1601L16.6075 15.3609Z" fill="url(#paint0_linear)" />
  <defs>
    <linearGradient id="paint0_linear" x1="25.0675" y1="29.3621" x2="8.68051" y2="4.25282" gradientUnits="userSpaceOnUse">
      <stop offset="0.01" stop-color="#645AFF" />
      <stop offset="0.5" stop-color="#E40C5B" />
      <stop offset="1" stop-color="#FF4C3B" />
    </linearGradient>
  </defs>
</svg>