<?xml version="1.0" encoding="utf-8"?>
<!-- Generator: Adobe Illustrator 26.2.1, SVG Export Plug-In . SVG Version: 6.00 Build 0)  -->
<svg version="1.1" id="a" xmlns="http://www.w3.org/2000/svg" xmlns:xlink="http://www.w3.org/1999/xlink" x="0px" y="0px"
	 viewBox="0 0 1069.5 1069.5" style="enable-background:new 0 0 1069.5 1069.5;" xml:space="preserve">
<style type="text/css">
	.st0{fill:#35A0CA;}
	.st1{fill:#FFFFFF;}
</style>
<circle class="st0" cx="534.8" cy="534.8" r="534.8"/>
<g>
	<g>
		<path class="st1" d="M751.8,631.2v-72.4L681,452.7c-11-16.6,0.8-38.7,20.7-38.7h0.7c8.2,0,15.9,4.1,20.6,10.8l49.5,72.4
			c1.6,2.4,5.2,2.4,6.8,0l50.2-72.6c4.7-6.7,12.3-10.7,20.5-10.7h0c19.9,0,31.8,22.2,20.7,38.7L800,558.8v72.4
			c0,13.3-10.8,24.1-24.1,24.1l0,0C762.6,655.3,751.8,644.5,751.8,631.2z"/>
	</g>
	<g>
		<g>
			<path class="st1" d="M242.7,438.3v193.1c0,13.3-10.8,24.1-24.1,24.1l0,0c-13.3,0-24.1-10.8-24.1-24.1V438.3
				c0-13.3,10.8-24.1,24.1-24.1l0,0C231.9,414.2,242.7,425,242.7,438.3L242.7,438.3z"/>
			<path class="st1" d="M400.2,414.2h156.1c13.3,0,24.1,10.8,24.1,24.1l0,0c0,13.3-10.8,24.1-24.1,24.1H411.4
				c-13.3,0-24.1,10.8-24.1,24.1v96.5c0,13.3,10.8,24.1,24.1,24.1h144.8c13.3,0,24.1,10.8,24.1,24.1l0,0c0,13.3-10.8,24.1-24.1,24.1
				H400.1c-33.7,0-61-27.3-61-61V475.4C339.1,441.6,366.4,414.3,400.2,414.2L400.2,414.2z"/>
		</g>
	</g>
</g>
</svg>
