<?xml version="1.0" encoding="utf-8"?>
<!-- Generator: Adobe Illustrator 26.2.1, SVG Export Plug-In . SVG Version: 6.00 Build 0)  -->
<svg version="1.1" id="a" xmlns="http://www.w3.org/2000/svg" xmlns:xlink="http://www.w3.org/1999/xlink" x="0px" y="0px"
	 viewBox="0 0 1069.5 1069.5" style="enable-background:new 0 0 1069.5 1069.5;" xml:space="preserve">
<style type="text/css">
	.st0{fill:#252380;}
	.st1{fill:#FFFFFF;}
</style>
<circle class="st0" cx="534.8" cy="534.8" r="534.8"/>
<g>
	<g>
		<path class="st1" d="M872.2,655.1H684.5c-12,0-18.9-13.7-11.7-23.4l123.7-165c1.4-1.9,0.1-4.5-2.2-4.5H679.4
			c-13.3,0-24.1-10.8-24.1-24.1v0c0-13.3,10.8-24.1,24.1-24.1h187.7c12,0,18.9,13.7,11.7,23.4l-123.7,165c-1.4,1.9-0.1,4.5,2.2,4.5
			h114.9c13.3,0,24.1,10.8,24.1,24.1v0C896.3,644.4,885.6,655.1,872.2,655.1z"/>
	</g>
	<g>
		<path class="st1" d="M221.4,438.2v193.1c0,13.3-10.8,24.1-24.1,24.1l0,0c-13.3,0-24.1-10.8-24.1-24.1V438.2
			c0-13.3,10.8-24.1,24.1-24.1l0,0C210.6,414.1,221.4,424.9,221.4,438.2L221.4,438.2z"/>
		<path class="st1" d="M378.8,414.1h156.1c13.3,0,24.1,10.8,24.1,24.1l0,0c0,13.3-10.8,24.1-24.1,24.1H390.1
			c-13.3,0-24.1,10.8-24.1,24.1V583c0,13.3,10.8,24.1,24.1,24.1h144.8c13.3,0,24.1,10.8,24.1,24.1l0,0c0,13.3-10.8,24.1-24.1,24.1
			H378.7c-33.7,0-61-27.3-61-61V475.3C317.7,441.5,345.1,414.1,378.8,414.1L378.8,414.1z"/>
	</g>
</g>
</svg>
