<?xml version="1.0" encoding="utf-8"?>
<!-- Generator: Adobe Illustrator 26.2.1, SVG Export Plug-In . SVG Version: 6.00 Build 0)  -->
<svg version="1.1" id="图层_1" xmlns="http://www.w3.org/2000/svg" xmlns:xlink="http://www.w3.org/1999/xlink" x="0px" y="0px"
	 viewBox="0 0 179.5 176.5" style="enable-background:new 0 0 179.5 176.5;" xml:space="preserve">
<style type="text/css">
	.st0{fill:url(#SVGID_1_);fill-opacity:0.2;}
	.st1{fill:url(#SVGID_00000026879842414119251550000008995275092745030051_);fill-opacity:0.2;}
	.st2{fill:none;stroke:url(#SVGID_00000048465494173948506170000007384188891905136816_);stroke-width:4;}
	.st3{fill:none;stroke:url(#SVGID_00000061441215177477738820000011267490731059654324_);stroke-width:4;stroke-opacity:0.2;}
	.st4{fill:#FFD8E5;}
	.st5{fill:none;stroke:url(#SVGID_00000023997587519871765660000001750089109340396449_);stroke-width:4;}
	.st6{fill:none;stroke:url(#SVGID_00000126293070881023084370000014967675678465640633_);stroke-width:4;stroke-opacity:0.2;}
	.st7{clip-path:url(#SVGID_00000181081820871185041070000012326362170665192608_);}
	.st8{fill:url(#SVGID_00000140011595408926869370000007221252771022926500_);}
	.st9{fill:url(#SVGID_00000174583145265711097790000000285414372606485382_);fill-opacity:0.2;}
	.st10{fill:url(#SVGID_00000141418801434267016830000001725662982435903627_);}
	.st11{fill:url(#SVGID_00000042009175934736860010000009337960976480109497_);fill-opacity:0.2;}
	.st12{fill:url(#SVGID_00000109748756173004682590000018185486674110206642_);}
	.st13{fill:url(#SVGID_00000124127387891900203370000009792836917969554056_);fill-opacity:0.2;}
	.st14{fill:url(#SVGID_00000153683305979186635170000012598974657131711873_);}
	.st15{fill:url(#SVGID_00000060020860769010736440000006455131147796015026_);fill-opacity:0.2;}
	.st16{fill:url(#SVGID_00000177446296768500590060000002610363270346495382_);}
	.st17{fill:url(#SVGID_00000150782533086396506260000014571045624971619004_);fill-opacity:0.2;}
	.st18{fill:url(#SVGID_00000148642065957161006220000005424188974132206757_);}
	.st19{fill:url(#SVGID_00000033349706102292524630000015487827774121782416_);fill-opacity:0.2;}
	.st20{fill:#F1F0FF;stroke:#645AFF;stroke-width:4;}
	.st21{fill:#645AFF;}
</style>
<linearGradient id="SVGID_1_" gradientUnits="userSpaceOnUse" x1="218.3044" y1="-70.5931" x2="-9.9631" y2="208.9571" gradientTransform="matrix(1 0 0 -1 0 180.2629)">
	<stop  offset="0" style="stop-color:#645AFF"/>
	<stop  offset="0.5207" style="stop-color:#E40C5B"/>
	<stop  offset="0.9859" style="stop-color:#FF4C3B"/>
</linearGradient>
<circle class="st0" cx="86.8" cy="89.8" r="81.8"/>
<linearGradient id="SVGID_00000168829173156760511290000015451969529890145668_" gradientUnits="userSpaceOnUse" x1="60.927" y1="96.1732" x2="270.67" y2="50.092" gradientTransform="matrix(1 0 0 -1 0 180.2629)">
	<stop  offset="0" style="stop-color:#FFFFFF"/>
	<stop  offset="1" style="stop-color:#FFFFFF;stop-opacity:0"/>
</linearGradient>
<circle style="fill:url(#SVGID_00000168829173156760511290000015451969529890145668_);fill-opacity:0.2;" cx="86.8" cy="89.8" r="81.8"/>
<linearGradient id="SVGID_00000136409269203282073030000009591494270298730943_" gradientUnits="userSpaceOnUse" x1="218.3044" y1="-70.5931" x2="-9.9631" y2="208.9571" gradientTransform="matrix(1 0 0 -1 0 180.2629)">
	<stop  offset="0" style="stop-color:#645AFF"/>
	<stop  offset="0.5207" style="stop-color:#E40C5B"/>
	<stop  offset="0.9859" style="stop-color:#FF4C3B"/>
</linearGradient>
<circle style="fill:none;stroke:url(#SVGID_00000136409269203282073030000009591494270298730943_);stroke-width:4;" cx="86.8" cy="89.8" r="81.8"/>
<linearGradient id="SVGID_00000005259903071189457390000006661664317544821436_" gradientUnits="userSpaceOnUse" x1="60.927" y1="96.1732" x2="270.67" y2="50.092" gradientTransform="matrix(1 0 0 -1 0 180.2629)">
	<stop  offset="0" style="stop-color:#FFFFFF"/>
	<stop  offset="1" style="stop-color:#FFFFFF;stop-opacity:0"/>
</linearGradient>
<circle style="fill:none;stroke:url(#SVGID_00000005259903071189457390000006661664317544821436_);stroke-width:4;stroke-opacity:0.2;" cx="86.8" cy="89.8" r="81.8"/>
<circle class="st4" cx="86.8" cy="89.8" r="81.8"/>
<linearGradient id="SVGID_00000013908635150308350890000014193758572776259006_" gradientUnits="userSpaceOnUse" x1="218.3044" y1="-70.5931" x2="-9.9631" y2="208.9571" gradientTransform="matrix(1 0 0 -1 0 180.2629)">
	<stop  offset="0" style="stop-color:#645AFF"/>
	<stop  offset="0.5207" style="stop-color:#E40C5B"/>
	<stop  offset="0.9859" style="stop-color:#FF4C3B"/>
</linearGradient>
<circle style="fill:none;stroke:url(#SVGID_00000013908635150308350890000014193758572776259006_);stroke-width:4;" cx="86.8" cy="89.8" r="81.8"/>
<linearGradient id="SVGID_00000174595079420355516230000012173867100073204660_" gradientUnits="userSpaceOnUse" x1="60.927" y1="96.1732" x2="270.67" y2="50.092" gradientTransform="matrix(1 0 0 -1 0 180.2629)">
	<stop  offset="0" style="stop-color:#FFFFFF"/>
	<stop  offset="1" style="stop-color:#FFFFFF;stop-opacity:0"/>
</linearGradient>
<circle style="fill:none;stroke:url(#SVGID_00000174595079420355516230000012173867100073204660_);stroke-width:4;stroke-opacity:0.2;" cx="86.8" cy="89.8" r="81.8"/>
<g>
	<defs>
		<rect id="SVGID_00000149346608001079480210000012741986187136190629_" x="34.4" y="35.2" width="104.3" height="109.1"/>
	</defs>
	<clipPath id="SVGID_00000042702458350915539340000010353301267871335822_">
		<use xlink:href="#SVGID_00000149346608001079480210000012741986187136190629_"  style="overflow:visible;"/>
	</clipPath>
	<g style="clip-path:url(#SVGID_00000042702458350915539340000010353301267871335822_);">
		
			<linearGradient id="SVGID_00000047041017809669200400000002167040187435944359_" gradientUnits="userSpaceOnUse" x1="100.9632" y1="102.7761" x2="75.9902" y2="156.2694" gradientTransform="matrix(1 0 0 -1 0 180.2629)">
			<stop  offset="0" style="stop-color:#645AFF"/>
			<stop  offset="0.5207" style="stop-color:#E40C5B"/>
			<stop  offset="0.9859" style="stop-color:#FF4C3B"/>
		</linearGradient>
		<path style="fill:url(#SVGID_00000047041017809669200400000002167040187435944359_);" d="M86.6,58.1c11.1,0,20-5.1,20-11.4
			s-9-11.4-20-11.4c-11.1,0-20,5.1-20,11.4S75.5,58.1,86.6,58.1z"/>
		
			<linearGradient id="SVGID_00000012441818338808619420000007583112593177876895_" gradientUnits="userSpaceOnUse" x1="80.8004" y1="135.8195" x2="127.6543" y2="117.8145" gradientTransform="matrix(1 0 0 -1 0 180.2629)">
			<stop  offset="0" style="stop-color:#FFFFFF"/>
			<stop  offset="1" style="stop-color:#FFFFFF;stop-opacity:0"/>
		</linearGradient>
		<path style="fill:url(#SVGID_00000012441818338808619420000007583112593177876895_);fill-opacity:0.2;" d="M86.6,58.1
			c11.1,0,20-5.1,20-11.4s-9-11.4-20-11.4c-11.1,0-20,5.1-20,11.4S75.5,58.1,86.6,58.1z"/>
		
			<linearGradient id="SVGID_00000152951318862502342270000011130160309723398328_" gradientUnits="userSpaceOnUse" x1="100.9632" y1="16.574" x2="75.9902" y2="70.067" gradientTransform="matrix(1 0 0 -1 0 180.2629)">
			<stop  offset="0" style="stop-color:#645AFF"/>
			<stop  offset="0.5207" style="stop-color:#E40C5B"/>
			<stop  offset="0.9859" style="stop-color:#FF4C3B"/>
		</linearGradient>
		<path style="fill:url(#SVGID_00000152951318862502342270000011130160309723398328_);" d="M86.6,144.3c11.1,0,20-5.1,20-11.4
			c0-6.3-9-11.4-20-11.4c-11.1,0-20,5.1-20,11.4C66.6,139.2,75.5,144.3,86.6,144.3z"/>
		
			<linearGradient id="SVGID_00000099662914302750812010000017492846428830264460_" gradientUnits="userSpaceOnUse" x1="80.8005" y1="49.6177" x2="127.6544" y2="31.6127" gradientTransform="matrix(1 0 0 -1 0 180.2629)">
			<stop  offset="0" style="stop-color:#FFFFFF"/>
			<stop  offset="1" style="stop-color:#FFFFFF;stop-opacity:0"/>
		</linearGradient>
		<path style="fill:url(#SVGID_00000099662914302750812010000017492846428830264460_);fill-opacity:0.2;" d="M86.6,144.3
			c11.1,0,20-5.1,20-11.4c0-6.3-9-11.4-20-11.4c-11.1,0-20,5.1-20,11.4C66.6,139.2,75.5,144.3,86.6,144.3z"/>
		
			<linearGradient id="SVGID_00000072272621239498456040000001660082321344308878_" gradientUnits="userSpaceOnUse" x1="83.0006" y1="109.244" x2="23.3057" y2="114.1112" gradientTransform="matrix(1 0 0 -1 0 180.2629)">
			<stop  offset="0" style="stop-color:#645AFF"/>
			<stop  offset="0.5207" style="stop-color:#E40C5B"/>
			<stop  offset="0.9859" style="stop-color:#FF4C3B"/>
		</linearGradient>
		<path style="fill:url(#SVGID_00000072272621239498456040000001660082321344308878_);" d="M58.7,73.9c5.5-9.4,5.5-19.6-0.1-22.8
			C53,48,44,53.1,38.5,62.5C33,71.9,33,82.1,38.6,85.2C44.2,88.4,53.2,83.3,58.7,73.9z"/>
		
			<linearGradient id="SVGID_00000088832137099352233970000009414184198316765864_" gradientUnits="userSpaceOnUse" x1="43.8731" y1="108.1092" x2="82.2562" y2="140.0875" gradientTransform="matrix(1 0 0 -1 0 180.2629)">
			<stop  offset="0" style="stop-color:#FFFFFF"/>
			<stop  offset="1" style="stop-color:#FFFFFF;stop-opacity:0"/>
		</linearGradient>
		<path style="fill:url(#SVGID_00000088832137099352233970000009414184198316765864_);fill-opacity:0.2;" d="M58.7,73.9
			c5.5-9.4,5.5-19.6-0.1-22.8C53,48,44,53.1,38.5,62.5C33,71.9,33,82.1,38.6,85.2C44.2,88.4,53.2,83.3,58.7,73.9z"/>
		
			<linearGradient id="SVGID_00000015352249074152497900000009455815639795581864_" gradientUnits="userSpaceOnUse" x1="158.9218" y1="66.1371" x2="99.2608" y2="71.017" gradientTransform="matrix(1 0 0 -1 0 180.2629)">
			<stop  offset="0" style="stop-color:#645AFF"/>
			<stop  offset="0.5207" style="stop-color:#E40C5B"/>
			<stop  offset="0.9859" style="stop-color:#FF4C3B"/>
		</linearGradient>
		<path style="fill:url(#SVGID_00000015352249074152497900000009455815639795581864_);" d="M134.6,117c5.5-9.4,5.5-19.6-0.1-22.8
			c-5.6-3.2-14.6,1.9-20.1,11.3s-5.5,19.6,0.1,22.8C120.1,131.5,129.1,126.4,134.6,117z"/>
		
			<linearGradient id="SVGID_00000029011059377232676070000015516611061776324506_" gradientUnits="userSpaceOnUse" x1="119.813" y1="65.0107" x2="158.2" y2="96.9783" gradientTransform="matrix(1 0 0 -1 0 180.2629)">
			<stop  offset="0" style="stop-color:#FFFFFF"/>
			<stop  offset="1" style="stop-color:#FFFFFF;stop-opacity:0"/>
		</linearGradient>
		<path style="fill:url(#SVGID_00000029011059377232676070000015516611061776324506_);fill-opacity:0.2;" d="M134.6,117
			c5.5-9.4,5.5-19.6-0.1-22.8c-5.6-3.2-14.6,1.9-20.1,11.3s-5.5,19.6,0.1,22.8C120.1,131.5,129.1,126.4,134.6,117z"/>
		
			<linearGradient id="SVGID_00000085936394147079256330000002084992048214712454_" gradientUnits="userSpaceOnUse" x1="86.5309" y1="65.2508" x2="20.715" y2="71.6728" gradientTransform="matrix(1 0 0 -1 0 180.2629)">
			<stop  offset="0" style="stop-color:#645AFF"/>
			<stop  offset="0.5207" style="stop-color:#E40C5B"/>
			<stop  offset="0.9859" style="stop-color:#FF4C3B"/>
		</linearGradient>
		<path style="fill:url(#SVGID_00000085936394147079256330000002084992048214712454_);" d="M58.6,128.3c5.6-3.2,5.6-13.4,0.1-22.8
			S44.2,91.1,38.6,94.3C33,97.4,33,107.6,38.5,117S53,131.5,58.6,128.3z"/>
		
			<linearGradient id="SVGID_00000154411351275304632230000006914628798356744091_" gradientUnits="userSpaceOnUse" x1="45.0952" y1="67.4569" x2="73.5818" y2="79.5871" gradientTransform="matrix(1 0 0 -1 0 180.2629)">
			<stop  offset="0" style="stop-color:#FFFFFF"/>
			<stop  offset="1" style="stop-color:#FFFFFF;stop-opacity:0"/>
		</linearGradient>
		<path style="fill:url(#SVGID_00000154411351275304632230000006914628798356744091_);fill-opacity:0.2;" d="M58.6,128.3
			c5.6-3.2,5.6-13.4,0.1-22.8S44.2,91.1,38.6,94.3C33,97.4,33,107.6,38.5,117S53,131.5,58.6,128.3z"/>
		
			<linearGradient id="SVGID_00000120542599994155271760000015433519188566913692_" gradientUnits="userSpaceOnUse" x1="162.4572" y1="108.36" x2="96.6682" y2="114.7568" gradientTransform="matrix(1 0 0 -1 0 180.2629)">
			<stop  offset="0" style="stop-color:#645AFF"/>
			<stop  offset="0.5207" style="stop-color:#E40C5B"/>
			<stop  offset="0.9859" style="stop-color:#FF4C3B"/>
		</linearGradient>
		<path style="fill:url(#SVGID_00000120542599994155271760000015433519188566913692_);" d="M134.6,85.3c5.6-3.2,5.6-13.3,0.1-22.8
			c-5.5-9.4-14.5-14.5-20.1-11.3c-5.6,3.2-5.6,13.3-0.1,22.8C120,83.3,129,88.4,134.6,85.3z"/>
		
			<linearGradient id="SVGID_00000094597150678496217660000014650746776243098804_" gradientUnits="userSpaceOnUse" x1="121.0393" y1="110.5523" x2="149.5063" y2="122.6767" gradientTransform="matrix(1 0 0 -1 0 180.2629)">
			<stop  offset="0" style="stop-color:#FFFFFF"/>
			<stop  offset="1" style="stop-color:#FFFFFF;stop-opacity:0"/>
		</linearGradient>
		<path style="fill:url(#SVGID_00000094597150678496217660000014650746776243098804_);fill-opacity:0.2;" d="M134.6,85.3
			c5.6-3.2,5.6-13.3,0.1-22.8c-5.5-9.4-14.5-14.5-20.1-11.3c-5.6,3.2-5.6,13.3-0.1,22.8C120,83.3,129,88.4,134.6,85.3z"/>
	</g>
</g>
<circle class="st20" cx="152.2" cy="144.3" r="25.3"/>
<path class="st21" d="M153.5,156.9c-2.3,0-4.4-0.5-6.3-1.6c-1.9-1-3.3-2.5-4.3-4.4c-1-1.9-1.6-4-1.6-6.4c0-2.4,0.5-4.5,1.6-6.3
	c1-1.9,2.5-3.3,4.3-4.4c1.9-1,4-1.6,6.3-1.6c2.2,0,4.2,0.5,5.8,1.4c1.7,1,3,2.3,3.8,4.1l-4.1,2.5c-0.6-1.1-1.5-1.9-2.4-2.5
	c-1-0.6-2-0.9-3.2-0.9c-2,0-3.6,0.7-4.9,2.1c-1.3,1.3-1.9,3.2-1.9,5.4c0,2.3,0.6,4.1,1.9,5.5c1.3,1.3,2.9,2,4.9,2
	c1.2,0,2.2-0.3,3.2-0.8c1-0.6,1.8-1.4,2.4-2.5l4.1,2.5c-0.9,1.8-2.2,3.2-3.8,4.2C157.6,156.4,155.7,156.9,153.5,156.9z"/>
</svg>
