<svg width="200" height="200" viewBox="0 0 200 200" fill="none" xmlns="http://www.w3.org/2000/svg">
<circle cx="97.2728" cy="100.273" r="81.8182" fill="url(#paint0_linear_17_168)" fill-opacity="0.2"/>
<circle cx="97.2728" cy="100.273" r="81.8182" fill="url(#paint1_linear_17_168)" fill-opacity="0.2"/>
<circle cx="97.2728" cy="100.273" r="81.8182" stroke="url(#paint2_linear_17_168)" stroke-width="4"/>
<circle cx="97.2728" cy="100.273" r="81.8182" stroke="url(#paint3_linear_17_168)" stroke-opacity="0.2" stroke-width="4"/>
<circle cx="97.2728" cy="100.273" r="81.8182" fill="#FFD8E5"/>
<circle cx="97.2728" cy="100.273" r="81.8182" stroke="url(#paint4_linear_17_168)" stroke-width="4"/>
<circle cx="97.2728" cy="100.273" r="81.8182" stroke="url(#paint5_linear_17_168)" stroke-opacity="0.2" stroke-width="4"/>
<g clip-path="url(#clip0_17_168)">
<path d="M97.0791 68.6083C108.13 68.6083 117.089 63.4862 117.089 57.1678C117.089 50.8494 108.13 45.7273 97.0791 45.7273C86.0277 45.7273 77.0688 50.8494 77.0688 57.1678C77.0688 63.4862 86.0277 68.6083 97.0791 68.6083Z" fill="url(#paint6_linear_17_168)"/>
<path d="M97.0791 68.6083C108.13 68.6083 117.089 63.4862 117.089 57.1678C117.089 50.8494 108.13 45.7273 97.0791 45.7273C86.0277 45.7273 77.0688 50.8494 77.0688 57.1678C77.0688 63.4862 86.0277 68.6083 97.0791 68.6083Z" fill="url(#paint7_linear_17_168)" fill-opacity="0.2"/>
<path d="M97.0791 154.81C108.13 154.81 117.089 149.688 117.089 143.37C117.089 137.052 108.13 131.929 97.0791 131.929C86.0277 131.929 77.0688 137.052 77.0688 143.37C77.0688 149.688 86.0277 154.81 97.0791 154.81Z" fill="url(#paint8_linear_17_168)"/>
<path d="M97.0791 154.81C108.13 154.81 117.089 149.688 117.089 143.37C117.089 137.052 108.13 131.929 97.0791 131.929C86.0277 131.929 77.0688 137.052 77.0688 143.37C77.0688 149.688 86.0277 154.81 97.0791 154.81Z" fill="url(#paint9_linear_17_168)" fill-opacity="0.2"/>
<path d="M69.1933 84.4446C74.719 75.0365 74.6832 64.8469 69.1132 61.6855C63.5433 58.5242 54.5485 63.5882 49.0229 72.9964C43.4972 82.4045 43.533 92.5942 49.103 95.7555C54.6729 98.9168 63.6677 93.8528 69.1933 84.4446Z" fill="url(#paint10_linear_17_168)"/>
<path d="M69.1933 84.4446C74.719 75.0365 74.6832 64.8469 69.1132 61.6855C63.5433 58.5242 54.5485 63.5882 49.0229 72.9964C43.4972 82.4045 43.533 92.5942 49.103 95.7555C54.6729 98.9168 63.6677 93.8528 69.1933 84.4446Z" fill="url(#paint11_linear_17_168)" fill-opacity="0.2"/>
<path d="M145.127 127.541C150.652 118.132 150.62 107.945 145.053 104.785C139.487 101.626 130.496 106.692 124.97 116.1C119.444 125.508 119.477 135.696 125.043 138.855C130.609 142.014 139.601 136.949 145.127 127.541Z" fill="url(#paint12_linear_17_168)"/>
<path d="M145.127 127.541C150.652 118.132 150.62 107.945 145.053 104.785C139.487 101.626 130.496 106.692 124.97 116.1C119.444 125.508 119.477 135.696 125.043 138.855C130.609 142.014 139.601 136.949 145.127 127.541Z" fill="url(#paint13_linear_17_168)" fill-opacity="0.2"/>
<path d="M69.1161 138.853C74.686 135.691 74.7219 125.502 69.1962 116.094C63.6705 106.686 54.6757 101.621 49.1058 104.783C43.5358 107.944 43.5 118.134 49.0257 127.542C54.5514 136.95 63.5461 142.014 69.1161 138.853Z" fill="url(#paint14_linear_17_168)"/>
<path d="M69.1161 138.853C74.686 135.691 74.7219 125.502 69.1962 116.094C63.6705 106.686 54.6757 101.621 49.1058 104.783C43.5358 107.944 43.5 118.134 49.0257 127.542C54.5514 136.95 63.5461 142.014 69.1161 138.853Z" fill="url(#paint15_linear_17_168)" fill-opacity="0.2"/>
<path d="M145.058 95.7581C150.624 92.5989 150.657 82.411 145.131 73.0028C139.606 63.5946 130.614 58.5288 125.048 61.6881C119.482 64.8473 119.449 75.0352 124.975 84.4433C130.5 93.8515 139.492 98.9173 145.058 95.7581Z" fill="url(#paint16_linear_17_168)"/>
<path d="M145.058 95.7581C150.624 92.5989 150.657 82.411 145.131 73.0028C139.606 63.5946 130.614 58.5288 125.048 61.6881C119.482 64.8473 119.449 75.0352 124.975 84.4433C130.5 93.8515 139.492 98.9173 145.058 95.7581Z" fill="url(#paint17_linear_17_168)" fill-opacity="0.2"/>
</g>
<circle cx="162.727" cy="154.818" r="25.2727" fill="#F1F0FF" stroke="#645AFF" stroke-width="4"/>
<path d="M164.014 167.364C161.679 167.364 159.583 166.84 157.726 165.793C155.87 164.746 154.421 163.295 153.38 161.441C152.339 159.556 151.818 157.432 151.818 155.069C151.818 152.705 152.339 150.596 153.38 148.742C154.421 146.887 155.855 145.436 157.684 144.389C159.541 143.342 161.651 142.818 164.014 142.818C166.237 142.818 168.178 143.297 169.838 144.254C171.526 145.212 172.792 146.588 173.636 148.383L169.585 150.896C168.938 149.789 168.122 148.966 167.137 148.428C166.181 147.859 165.126 147.575 163.972 147.575C162.003 147.575 160.371 148.263 159.077 149.639C157.783 150.985 157.136 152.795 157.136 155.069C157.136 157.342 157.769 159.167 159.035 160.543C160.329 161.889 161.975 162.563 163.972 162.563C165.126 162.563 166.181 162.293 167.137 161.755C168.122 161.186 168.938 160.349 169.585 159.242L173.636 161.755C172.764 163.55 171.484 164.941 169.796 165.928C168.136 166.885 166.209 167.364 164.014 167.364Z" fill="#645AFF"/>
<defs>
<linearGradient id="paint0_linear_17_168" x1="245.398" y1="247.818" x2="17.1305" y2="-31.7322" gradientUnits="userSpaceOnUse">
<stop stop-color="#645AFF"/>
<stop offset="0.520746" stop-color="#E40C5B"/>
<stop offset="0.985908" stop-color="#FF4C3B"/>
</linearGradient>
<linearGradient id="paint1_linear_17_168" x1="102.932" y1="-48.7727" x2="312.675" y2="-2.69144" gradientUnits="userSpaceOnUse">
<stop stop-color="white"/>
<stop offset="1" stop-color="white" stop-opacity="0"/>
</linearGradient>
<linearGradient id="paint2_linear_17_168" x1="245.398" y1="247.818" x2="17.1305" y2="-31.7322" gradientUnits="userSpaceOnUse">
<stop stop-color="#645AFF"/>
<stop offset="0.520746" stop-color="#E40C5B"/>
<stop offset="0.985908" stop-color="#FF4C3B"/>
</linearGradient>
<linearGradient id="paint3_linear_17_168" x1="102.932" y1="-48.7727" x2="312.675" y2="-2.69144" gradientUnits="userSpaceOnUse">
<stop stop-color="white"/>
<stop offset="1" stop-color="white" stop-opacity="0"/>
</linearGradient>
<linearGradient id="paint4_linear_17_168" x1="245.398" y1="247.818" x2="17.1305" y2="-31.7322" gradientUnits="userSpaceOnUse">
<stop stop-color="#645AFF"/>
<stop offset="0.520746" stop-color="#E40C5B"/>
<stop offset="0.985908" stop-color="#FF4C3B"/>
</linearGradient>
<linearGradient id="paint5_linear_17_168" x1="102.932" y1="-48.7727" x2="312.675" y2="-2.69144" gradientUnits="userSpaceOnUse">
<stop stop-color="white"/>
<stop offset="1" stop-color="white" stop-opacity="0"/>
</linearGradient>
<linearGradient id="paint6_linear_17_168" x1="133.306" y1="77.7989" x2="108.333" y2="24.3056" gradientUnits="userSpaceOnUse">
<stop stop-color="#645AFF"/>
<stop offset="0.520746" stop-color="#E40C5B"/>
<stop offset="0.985908" stop-color="#FF4C3B"/>
</linearGradient>
<linearGradient id="paint7_linear_17_168" x1="98.4631" y1="36.327" x2="145.317" y2="54.332" gradientUnits="userSpaceOnUse">
<stop stop-color="white"/>
<stop offset="1" stop-color="white" stop-opacity="0"/>
</linearGradient>
<linearGradient id="paint8_linear_17_168" x1="133.306" y1="164.001" x2="108.333" y2="110.508" gradientUnits="userSpaceOnUse">
<stop stop-color="#645AFF"/>
<stop offset="0.520746" stop-color="#E40C5B"/>
<stop offset="0.985908" stop-color="#FF4C3B"/>
</linearGradient>
<linearGradient id="paint9_linear_17_168" x1="98.4631" y1="122.529" x2="145.317" y2="140.534" gradientUnits="userSpaceOnUse">
<stop stop-color="white"/>
<stop offset="1" stop-color="white" stop-opacity="0"/>
</linearGradient>
<linearGradient id="paint10_linear_17_168" x1="95.4086" y1="58.2026" x2="35.7137" y2="53.3354" gradientUnits="userSpaceOnUse">
<stop stop-color="#645AFF"/>
<stop offset="0.520746" stop-color="#E40C5B"/>
<stop offset="0.985908" stop-color="#FF4C3B"/>
</linearGradient>
<linearGradient id="paint11_linear_17_168" x1="41.4282" y1="67.1148" x2="79.8113" y2="35.1365" gradientUnits="userSpaceOnUse">
<stop stop-color="white"/>
<stop offset="1" stop-color="white" stop-opacity="0"/>
</linearGradient>
<linearGradient id="paint12_linear_17_168" x1="171.337" y1="101.295" x2="111.676" y2="96.4151" gradientUnits="userSpaceOnUse">
<stop stop-color="#645AFF"/>
<stop offset="0.520746" stop-color="#E40C5B"/>
<stop offset="0.985908" stop-color="#FF4C3B"/>
</linearGradient>
<linearGradient id="paint13_linear_17_168" x1="117.381" y1="110.222" x2="155.768" y2="78.2544" gradientUnits="userSpaceOnUse">
<stop stop-color="white"/>
<stop offset="1" stop-color="white" stop-opacity="0"/>
</linearGradient>
<linearGradient id="paint14_linear_17_168" x1="95.412" y1="142.175" x2="29.5961" y2="135.753" gradientUnits="userSpaceOnUse">
<stop stop-color="#645AFF"/>
<stop offset="0.520746" stop-color="#E40C5B"/>
<stop offset="0.985908" stop-color="#FF4C3B"/>
</linearGradient>
<linearGradient id="paint15_linear_17_168" x1="41.5824" y1="90.3898" x2="70.069" y2="78.2596" gradientUnits="userSpaceOnUse">
<stop stop-color="white"/>
<stop offset="1" stop-color="white" stop-opacity="0"/>
</linearGradient>
<linearGradient id="paint16_linear_17_168" x1="171.342" y1="99.0868" x2="105.553" y2="92.69" gradientUnits="userSpaceOnUse">
<stop stop-color="#645AFF"/>
<stop offset="0.520746" stop-color="#E40C5B"/>
<stop offset="0.985908" stop-color="#FF4C3B"/>
</linearGradient>
<linearGradient id="paint17_linear_17_168" x1="117.524" y1="47.2953" x2="145.991" y2="35.1709" gradientUnits="userSpaceOnUse">
<stop stop-color="white"/>
<stop offset="1" stop-color="white" stop-opacity="0"/>
</linearGradient>
<clipPath id="clip0_17_168">
<rect width="104.348" height="109.091" fill="white" transform="translate(44.9091 45.7273)"/>
</clipPath>
</defs>
</svg>
