<svg width="139" height="132" viewBox="0 0 139 132" fill="none" xmlns="http://www.w3.org/2000/svg">
<path d="M65.7379 130C100.939 130 129.476 101.346 129.476 66C129.476 30.6538 100.939 2 65.7379 2C30.5364 2 2 30.6538 2 66C2 101.346 30.5364 130 65.7379 130Z" fill="url(#paint0_linear_221_258)" fill-opacity="0.2"/>
<path d="M65.7379 130C100.939 130 129.476 101.346 129.476 66C129.476 30.6538 100.939 2 65.7379 2C30.5364 2 2 30.6538 2 66C2 101.346 30.5364 130 65.7379 130Z" fill="url(#paint1_linear_221_258)" fill-opacity="0.2"/>
<path d="M65.7379 130C100.939 130 129.476 101.346 129.476 66C129.476 30.6538 100.939 2 65.7379 2C30.5364 2 2 30.6538 2 66C2 101.346 30.5364 130 65.7379 130Z" stroke="url(#paint2_linear_221_258)"/>
<path d="M65.7379 130C100.939 130 129.476 101.346 129.476 66C129.476 30.6538 100.939 2 65.7379 2C30.5364 2 2 30.6538 2 66C2 101.346 30.5364 130 65.7379 130Z" stroke="url(#paint3_linear_221_258)" stroke-opacity="0.2"/>
<path d="M65.7379 130C100.939 130 129.476 101.346 129.476 66C129.476 30.6538 100.939 2 65.7379 2C30.5364 2 2 30.6538 2 66C2 101.346 30.5364 130 65.7379 130Z" fill="#FFD8E5"/>
<path d="M65.7379 130C100.939 130 129.476 101.346 129.476 66C129.476 30.6538 100.939 2 65.7379 2C30.5364 2 2 30.6538 2 66C2 101.346 30.5364 130 65.7379 130Z" stroke="url(#paint4_linear_221_258)" stroke-width="4"/>
<path d="M65.7379 130C100.939 130 129.476 101.346 129.476 66C129.476 30.6538 100.939 2 65.7379 2C30.5364 2 2 30.6538 2 66C2 101.346 30.5364 130 65.7379 130Z" stroke="url(#paint5_linear_221_258)" stroke-opacity="0.2" stroke-width="4"/>
<path d="M65.587 41.2314C74.1962 41.2314 81.1751 37.2248 81.1751 32.2824C81.1751 27.34 74.1962 23.3333 65.587 23.3333C56.9778 23.3333 49.9986 27.34 49.9986 32.2824C49.9986 37.2248 56.9778 41.2314 65.587 41.2314Z" fill="url(#paint6_linear_221_258)"/>
<path d="M65.587 41.2314C74.1962 41.2314 81.1751 37.2248 81.1751 32.2824C81.1751 27.34 74.1962 23.3333 65.587 23.3333C56.9778 23.3333 49.9986 27.34 49.9986 32.2824C49.9986 37.2248 56.9778 41.2314 65.587 41.2314Z" fill="url(#paint7_linear_221_258)" fill-opacity="0.2"/>
<path d="M65.587 108.661C74.1962 108.661 81.1751 104.654 81.1751 99.7116C81.1751 94.7695 74.1962 90.7622 65.587 90.7622C56.9778 90.7622 49.9986 94.7695 49.9986 99.7116C49.9986 104.654 56.9778 108.661 65.587 108.661Z" fill="url(#paint8_linear_221_258)"/>
<path d="M65.587 108.661C74.1962 108.661 81.1751 104.654 81.1751 99.7116C81.1751 94.7695 74.1962 90.7622 65.587 90.7622C56.9778 90.7622 49.9986 94.7695 49.9986 99.7116C49.9986 104.654 56.9778 108.661 65.587 108.661Z" fill="url(#paint9_linear_221_258)" fill-opacity="0.2"/>
<path d="M43.8635 53.6189C48.1681 46.2597 48.1401 38.2892 43.8011 35.8163C39.462 33.3434 32.4549 37.3046 28.1503 44.6639C23.8457 52.0232 23.8736 59.9937 28.2127 62.4666C32.5518 64.9395 39.5588 60.9783 43.8635 53.6189Z" fill="url(#paint10_linear_221_258)"/>
<path d="M43.8635 53.6189C48.1681 46.2597 48.1401 38.2892 43.8011 35.8163C39.462 33.3434 32.4549 37.3046 28.1503 44.6639C23.8457 52.0232 23.8736 59.9937 28.2127 62.4666C32.5518 64.9395 39.5588 60.9783 43.8635 53.6189Z" fill="url(#paint11_linear_221_258)" fill-opacity="0.2"/>
<path d="M103.017 87.3291C107.321 79.9705 107.296 72.001 102.96 69.5298C98.6236 67.0586 91.6186 71.0212 87.3145 78.3805C83.0097 85.7399 83.0354 93.7085 87.3714 96.1803C91.7074 98.6513 98.7124 94.6885 103.017 87.3291Z" fill="url(#paint12_linear_221_258)"/>
<path d="M103.017 87.3291C107.321 79.9705 107.296 72.001 102.96 69.5298C98.6236 67.0586 91.6186 71.0212 87.3145 78.3805C83.0097 85.7399 83.0354 93.7085 87.3714 96.1803C91.7074 98.6513 98.7124 94.6885 103.017 87.3291Z" fill="url(#paint13_linear_221_258)" fill-opacity="0.2"/>
<path d="M43.8033 96.178C48.1424 93.7054 48.1703 85.7344 43.8657 78.375C39.5611 71.0161 32.554 67.0549 28.215 69.5278C23.8758 72.0006 23.8479 79.9713 28.1526 87.3307C32.4571 94.69 39.4642 98.6506 43.8033 96.178Z" fill="url(#paint14_linear_221_258)"/>
<path d="M43.8033 96.178C48.1424 93.7054 48.1703 85.7344 43.8657 78.375C39.5611 71.0161 32.554 67.0549 28.215 69.5278C23.8758 72.0006 23.8479 79.9713 28.1526 87.3307C32.4571 94.69 39.4642 98.6506 43.8033 96.178Z" fill="url(#paint15_linear_221_258)" fill-opacity="0.2"/>
<path d="M102.964 62.4686C107.3 59.9974 107.325 52.0282 103.02 44.6689C98.7163 37.3096 91.7114 33.3471 87.3753 35.8183C83.0393 38.2895 83.0136 46.2587 87.3185 53.6179C91.6225 60.9772 98.6275 64.9398 102.964 62.4686Z" fill="url(#paint16_linear_221_258)"/>
<path d="M102.964 62.4686C107.3 59.9974 107.325 52.0282 103.02 44.6689C98.7163 37.3096 91.7114 33.3471 87.3753 35.8183C83.0393 38.2895 83.0136 46.2587 87.3185 53.6179C91.6225 60.9772 98.6275 64.9398 102.964 62.4686Z" fill="url(#paint17_linear_221_258)" fill-opacity="0.2"/>
<path d="M136.416 108.666C136.416 119.595 127.595 128.442 116.728 128.442C105.861 128.442 97.0407 119.595 97.0407 108.666C97.0407 97.7392 105.861 88.8911 116.728 88.8911C127.595 88.8911 136.416 97.7392 136.416 108.666Z" fill="#F1F0FF" stroke="#645AFF" stroke-width="4"/>
<path d="M111.204 117.2H123.952V112.806H115.371L115.454 100.133H111.204V117.2Z" fill="#645AFF"/>
<defs>
<linearGradient id="paint0_linear_221_258" x1="181.13" y1="181.414" x2="2.42939" y2="-36.5387" gradientUnits="userSpaceOnUse">
<stop stop-color="#645AFF"/>
<stop offset="0.520746" stop-color="#E40C5B"/>
<stop offset="0.985908" stop-color="#FF4C3B"/>
</linearGradient>
<linearGradient id="paint1_linear_221_258" x1="70.1465" y1="-50.5867" x2="233.602" y2="-14.822" gradientUnits="userSpaceOnUse">
<stop stop-color="white"/>
<stop offset="1" stop-color="white" stop-opacity="0"/>
</linearGradient>
<linearGradient id="paint2_linear_221_258" x1="181.13" y1="181.414" x2="2.42939" y2="-36.5387" gradientUnits="userSpaceOnUse">
<stop stop-color="#645AFF"/>
<stop offset="0.520746" stop-color="#E40C5B"/>
<stop offset="0.985908" stop-color="#FF4C3B"/>
</linearGradient>
<linearGradient id="paint3_linear_221_258" x1="70.1465" y1="-50.5867" x2="233.602" y2="-14.822" gradientUnits="userSpaceOnUse">
<stop stop-color="white"/>
<stop offset="1" stop-color="white" stop-opacity="0"/>
</linearGradient>
<linearGradient id="paint4_linear_221_258" x1="181.13" y1="181.414" x2="2.42939" y2="-36.5387" gradientUnits="userSpaceOnUse">
<stop stop-color="#645AFF"/>
<stop offset="0.520746" stop-color="#E40C5B"/>
<stop offset="0.985908" stop-color="#FF4C3B"/>
</linearGradient>
<linearGradient id="paint5_linear_221_258" x1="70.1465" y1="-50.5867" x2="233.602" y2="-14.822" gradientUnits="userSpaceOnUse">
<stop stop-color="white"/>
<stop offset="1" stop-color="white" stop-opacity="0"/>
</linearGradient>
<linearGradient id="paint6_linear_221_258" x1="93.8084" y1="48.4204" x2="74.2224" y2="6.63839" gradientUnits="userSpaceOnUse">
<stop stop-color="#645AFF"/>
<stop offset="0.520746" stop-color="#E40C5B"/>
<stop offset="0.985908" stop-color="#FF4C3B"/>
</linearGradient>
<linearGradient id="paint7_linear_221_258" x1="66.6652" y1="15.9802" x2="103.204" y2="29.9637" gradientUnits="userSpaceOnUse">
<stop stop-color="white"/>
<stop offset="1" stop-color="white" stop-opacity="0"/>
</linearGradient>
<linearGradient id="paint8_linear_221_258" x1="93.8084" y1="115.85" x2="74.2224" y2="74.0677" gradientUnits="userSpaceOnUse">
<stop stop-color="#645AFF"/>
<stop offset="0.520746" stop-color="#E40C5B"/>
<stop offset="0.985908" stop-color="#FF4C3B"/>
</linearGradient>
<linearGradient id="paint9_linear_221_258" x1="66.6652" y1="83.4098" x2="103.204" y2="97.3932" gradientUnits="userSpaceOnUse">
<stop stop-color="white"/>
<stop offset="1" stop-color="white" stop-opacity="0"/>
</linearGradient>
<linearGradient id="paint10_linear_221_258" x1="64.2857" y1="33.0919" x2="17.7797" y2="29.3156" gradientUnits="userSpaceOnUse">
<stop stop-color="#645AFF"/>
<stop offset="0.520746" stop-color="#E40C5B"/>
<stop offset="0.985908" stop-color="#FF4C3B"/>
</linearGradient>
<linearGradient id="paint11_linear_221_258" x1="22.2339" y1="40.0632" x2="52.2356" y2="15.1701" gradientUnits="userSpaceOnUse">
<stop stop-color="white"/>
<stop offset="1" stop-color="white" stop-opacity="0"/>
</linearGradient>
<linearGradient id="paint12_linear_221_258" x1="123.435" y1="66.8" x2="76.9552" y2="63.0134" gradientUnits="userSpaceOnUse">
<stop stop-color="#645AFF"/>
<stop offset="0.520746" stop-color="#E40C5B"/>
<stop offset="0.985908" stop-color="#FF4C3B"/>
</linearGradient>
<linearGradient id="paint13_linear_221_258" x1="81.4026" y1="73.7822" x2="111.407" y2="48.8978" gradientUnits="userSpaceOnUse">
<stop stop-color="white"/>
<stop offset="1" stop-color="white" stop-opacity="0"/>
</linearGradient>
<linearGradient id="paint14_linear_221_258" x1="64.2884" y1="98.776" x2="13.0126" y2="93.7942" gradientUnits="userSpaceOnUse">
<stop stop-color="#645AFF"/>
<stop offset="0.520746" stop-color="#E40C5B"/>
<stop offset="0.985908" stop-color="#FF4C3B"/>
</linearGradient>
<linearGradient id="paint15_linear_221_258" x1="22.3541" y1="58.2693" x2="44.5736" y2="48.8465" gradientUnits="userSpaceOnUse">
<stop stop-color="white"/>
<stop offset="1" stop-color="white" stop-opacity="0"/>
</linearGradient>
<linearGradient id="paint16_linear_221_258" x1="123.439" y1="65.0724" x2="72.1846" y2="60.1092" gradientUnits="userSpaceOnUse">
<stop stop-color="#645AFF"/>
<stop offset="0.520746" stop-color="#E40C5B"/>
<stop offset="0.985908" stop-color="#FF4C3B"/>
</linearGradient>
<linearGradient id="paint17_linear_221_258" x1="81.514" y1="24.56" x2="103.718" y2="15.1416" gradientUnits="userSpaceOnUse">
<stop stop-color="white"/>
<stop offset="1" stop-color="white" stop-opacity="0"/>
</linearGradient>
</defs>
</svg>
