<svg width="32" height="32" viewBox="0 0 32 32" fill="none" xmlns="http://www.w3.org/2000/svg">
<path d="M31.4839 16C31.4839 24.5515 24.5515 31.4839 16 31.4839C7.44849 31.4839 0.516129 24.5515 0.516129 16C0.516129 7.44848 7.44849 0.516113 16 0.516113C24.5515 0.516113 31.4839 7.44848 31.4839 16Z" fill="url(#paint0_linear_207_1425)" fill-opacity="0.2"/>
<path d="M31.4839 16C31.4839 24.5515 24.5515 31.4839 16 31.4839C7.44849 31.4839 0.516129 24.5515 0.516129 16C0.516129 7.44848 7.44849 0.516113 16 0.516113C24.5515 0.516113 31.4839 7.44848 31.4839 16Z" fill="url(#paint1_linear_207_1425)" fill-opacity="0.2"/>
<path fill-rule="evenodd" clip-rule="evenodd" d="M16 1.03226C7.73354 1.03226 1.03226 7.73354 1.03226 16C1.03226 24.2665 7.73354 30.9677 16 30.9677C24.2665 30.9677 30.9677 24.2665 30.9677 16C30.9677 7.73354 24.2665 1.03226 16 1.03226ZM0 16C0 7.16344 7.16344 0 16 0C24.8366 0 32 7.16344 32 16C32 24.8366 24.8366 32 16 32C7.16344 32 0 24.8366 0 16Z" fill="url(#paint2_linear_207_1425)"/>
<path fill-rule="evenodd" clip-rule="evenodd" d="M16 1.03226C7.73354 1.03226 1.03226 7.73354 1.03226 16C1.03226 24.2665 7.73354 30.9677 16 30.9677C24.2665 30.9677 30.9677 24.2665 30.9677 16C30.9677 7.73354 24.2665 1.03226 16 1.03226ZM0 16C0 7.16344 7.16344 0 16 0C24.8366 0 32 7.16344 32 16C32 24.8366 24.8366 32 16 32C7.16344 32 0 24.8366 0 16Z" fill="url(#paint3_linear_207_1425)" fill-opacity="0.2"/>
<path d="M31.4839 16C31.4839 24.5515 24.5515 31.4839 16 31.4839C7.44849 31.4839 0.516129 24.5515 0.516129 16C0.516129 7.44848 7.44849 0.516113 16 0.516113C24.5515 0.516113 31.4839 7.44848 31.4839 16Z" fill="#FFD8E5"/>
<path fill-rule="evenodd" clip-rule="evenodd" d="M16 1.03226C7.73354 1.03226 1.03226 7.73354 1.03226 16C1.03226 24.2665 7.73354 30.9677 16 30.9677C24.2665 30.9677 30.9677 24.2665 30.9677 16C30.9677 7.73354 24.2665 1.03226 16 1.03226ZM0 16C0 7.16344 7.16344 0 16 0C24.8366 0 32 7.16344 32 16C32 24.8366 24.8366 32 16 32C7.16344 32 0 24.8366 0 16Z" fill="url(#paint4_linear_207_1425)"/>
<path fill-rule="evenodd" clip-rule="evenodd" d="M16 1.03226C7.73354 1.03226 1.03226 7.73354 1.03226 16C1.03226 24.2665 7.73354 30.9677 16 30.9677C24.2665 30.9677 30.9677 24.2665 30.9677 16C30.9677 7.73354 24.2665 1.03226 16 1.03226ZM0 16C0 7.16344 7.16344 0 16 0C24.8366 0 32 7.16344 32 16C32 24.8366 24.8366 32 16 32C7.16344 32 0 24.8366 0 16Z" fill="url(#paint5_linear_207_1425)" fill-opacity="0.2"/>
<g clip-path="url(#clip0_207_1425)">
<path d="M15.9633 10.0077C18.0547 10.0077 19.7501 9.03832 19.7501 7.84258C19.7501 6.64683 18.0547 5.67749 15.9633 5.67749C13.8718 5.67749 12.1764 6.64683 12.1764 7.84258C12.1764 9.03832 13.8718 10.0077 15.9633 10.0077Z" fill="url(#paint6_linear_207_1425)"/>
<path d="M15.9633 10.0077C18.0547 10.0077 19.7501 9.03832 19.7501 7.84258C19.7501 6.64683 18.0547 5.67749 15.9633 5.67749C13.8718 5.67749 12.1764 6.64683 12.1764 7.84258C12.1764 9.03832 13.8718 10.0077 15.9633 10.0077Z" fill="url(#paint7_linear_207_1425)" fill-opacity="0.2"/>
<path d="M15.9633 26.3211C18.0547 26.3211 19.7501 25.3518 19.7501 24.1561C19.7501 22.9603 18.0547 21.991 15.9633 21.991C13.8718 21.991 12.1764 22.9603 12.1764 24.1561C12.1764 25.3518 13.8718 26.3211 15.9633 26.3211Z" fill="url(#paint8_linear_207_1425)"/>
<path d="M15.9633 26.3211C18.0547 26.3211 19.7501 25.3518 19.7501 24.1561C19.7501 22.9603 18.0547 21.991 15.9633 21.991C13.8718 21.991 12.1764 22.9603 12.1764 24.1561C12.1764 25.3518 13.8718 26.3211 15.9633 26.3211Z" fill="url(#paint9_linear_207_1425)" fill-opacity="0.2"/>
<path d="M10.6859 13.0047C11.7317 11.2243 11.7249 9.29592 10.6708 8.69764C9.6167 8.09936 7.91446 9.05772 6.86874 10.8382C5.82302 12.6187 5.82981 14.547 6.8839 15.1453C7.93799 15.7436 9.64023 14.7852 10.6859 13.0047Z" fill="url(#paint10_linear_207_1425)"/>
<path d="M10.6859 13.0047C11.7317 11.2243 11.7249 9.29592 10.6708 8.69764C9.6167 8.09936 7.91446 9.05772 6.86874 10.8382C5.82302 12.6187 5.82981 14.547 6.8839 15.1453C7.93799 15.7436 9.64023 14.7852 10.6859 13.0047Z" fill="url(#paint11_linear_207_1425)" fill-opacity="0.2"/>
<path d="M25.0561 21.1605C26.1019 19.38 26.0957 17.452 25.0423 16.8541C23.9889 16.2563 22.2872 17.215 21.2415 18.9954C20.1958 20.7759 20.202 22.7039 21.2554 23.3018C22.3088 23.8996 24.0104 22.941 25.0561 21.1605Z" fill="url(#paint12_linear_207_1425)"/>
<path d="M25.0561 21.1605C26.1019 19.38 26.0957 17.452 25.0423 16.8541C23.9889 16.2563 22.2872 17.215 21.2415 18.9954C20.1958 20.7759 20.202 22.7039 21.2554 23.3018C22.3088 23.8996 24.0104 22.941 25.0561 21.1605Z" fill="url(#paint13_linear_207_1425)" fill-opacity="0.2"/>
<path d="M10.6713 23.3011C11.7254 22.7029 11.7322 20.7745 10.6865 18.994C9.64077 17.2136 7.93853 16.2552 6.88444 16.8535C5.83034 17.4518 5.82355 19.3801 6.86928 21.1606C7.915 22.9411 9.61724 23.8994 10.6713 23.3011Z" fill="url(#paint14_linear_207_1425)"/>
<path d="M10.6713 23.3011C11.7254 22.7029 11.7322 20.7745 10.6865 18.994C9.64077 17.2136 7.93853 16.2552 6.88444 16.8535C5.83034 17.4518 5.82355 19.3801 6.86928 21.1606C7.915 22.9411 9.61724 23.8994 10.6713 23.3011Z" fill="url(#paint15_linear_207_1425)" fill-opacity="0.2"/>
<path d="M25.0431 15.1456C26.0965 14.5478 26.1027 12.6197 25.057 10.8393C24.0113 9.05879 22.3097 8.1001 21.2563 8.69797C20.2029 9.29585 20.1967 11.2239 21.2424 13.0043C22.2881 14.7848 23.9898 15.7435 25.0431 15.1456Z" fill="url(#paint16_linear_207_1425)"/>
<path d="M25.0431 15.1456C26.0965 14.5478 26.1027 12.6197 25.057 10.8393C24.0113 9.05879 22.3097 8.1001 21.2563 8.69797C20.2029 9.29585 20.1967 11.2239 21.2424 13.0043C22.2881 14.7848 23.9898 15.7435 25.0431 15.1456Z" fill="url(#paint17_linear_207_1425)" fill-opacity="0.2"/>
</g>
<circle cx="27" cy="27" r="4.5" fill="#F1F0FF" stroke="#645AFF"/>
<path d="M25.7 29L28.7 29V27.9701H26.6806L26.7 25H25.7V29Z" fill="#645AFF"/>
<defs>
<linearGradient id="paint0_linear_207_1425" x1="44.0323" y1="43.9226" x2="0.833308" y2="-8.98159" gradientUnits="userSpaceOnUse">
<stop stop-color="#645AFF"/>
<stop offset="0.520746" stop-color="#E40C5B"/>
<stop offset="0.985908" stop-color="#FF4C3B"/>
</linearGradient>
<linearGradient id="paint1_linear_207_1425" x1="17.071" y1="-12.2065" x2="56.7643" y2="-3.48572" gradientUnits="userSpaceOnUse">
<stop stop-color="white"/>
<stop offset="1" stop-color="white" stop-opacity="0"/>
</linearGradient>
<linearGradient id="paint2_linear_207_1425" x1="44.9667" y1="44.8533" x2="0.327752" y2="-9.81429" gradientUnits="userSpaceOnUse">
<stop stop-color="#645AFF"/>
<stop offset="0.520746" stop-color="#E40C5B"/>
<stop offset="0.985908" stop-color="#FF4C3B"/>
</linearGradient>
<linearGradient id="paint3_linear_207_1425" x1="17.1067" y1="-13.1467" x2="58.1231" y2="-4.13522" gradientUnits="userSpaceOnUse">
<stop stop-color="white"/>
<stop offset="1" stop-color="white" stop-opacity="0"/>
</linearGradient>
<linearGradient id="paint4_linear_207_1425" x1="44.9667" y1="44.8533" x2="0.327752" y2="-9.81429" gradientUnits="userSpaceOnUse">
<stop stop-color="#645AFF"/>
<stop offset="0.520746" stop-color="#E40C5B"/>
<stop offset="0.985908" stop-color="#FF4C3B"/>
</linearGradient>
<linearGradient id="paint5_linear_207_1425" x1="17.1067" y1="-13.1467" x2="58.1231" y2="-4.13522" gradientUnits="userSpaceOnUse">
<stop stop-color="white"/>
<stop offset="1" stop-color="white" stop-opacity="0"/>
</linearGradient>
<linearGradient id="paint6_linear_207_1425" x1="22.8191" y1="11.7469" x2="18.093" y2="1.62349" gradientUnits="userSpaceOnUse">
<stop stop-color="#645AFF"/>
<stop offset="0.520746" stop-color="#E40C5B"/>
<stop offset="0.985908" stop-color="#FF4C3B"/>
</linearGradient>
<linearGradient id="paint7_linear_207_1425" x1="16.2252" y1="3.89851" x2="25.0922" y2="7.3059" gradientUnits="userSpaceOnUse">
<stop stop-color="white"/>
<stop offset="1" stop-color="white" stop-opacity="0"/>
</linearGradient>
<linearGradient id="paint8_linear_207_1425" x1="22.8191" y1="28.0604" x2="18.093" y2="17.937" gradientUnits="userSpaceOnUse">
<stop stop-color="#645AFF"/>
<stop offset="0.520746" stop-color="#E40C5B"/>
<stop offset="0.985908" stop-color="#FF4C3B"/>
</linearGradient>
<linearGradient id="paint9_linear_207_1425" x1="16.2252" y1="20.212" x2="25.0922" y2="23.6194" gradientUnits="userSpaceOnUse">
<stop stop-color="white"/>
<stop offset="1" stop-color="white" stop-opacity="0"/>
</linearGradient>
<linearGradient id="paint10_linear_207_1425" x1="15.6471" y1="8.0385" x2="4.35002" y2="7.11741" gradientUnits="userSpaceOnUse">
<stop stop-color="#645AFF"/>
<stop offset="0.520746" stop-color="#E40C5B"/>
<stop offset="0.985908" stop-color="#FF4C3B"/>
</linearGradient>
<linearGradient id="paint11_linear_207_1425" x1="5.43147" y1="9.72511" x2="12.6954" y2="3.67331" gradientUnits="userSpaceOnUse">
<stop stop-color="white"/>
<stop offset="1" stop-color="white" stop-opacity="0"/>
</linearGradient>
<linearGradient id="paint12_linear_207_1425" x1="30.0163" y1="16.1937" x2="18.7256" y2="15.2701" gradientUnits="userSpaceOnUse">
<stop stop-color="#645AFF"/>
<stop offset="0.520746" stop-color="#E40C5B"/>
<stop offset="0.985908" stop-color="#FF4C3B"/>
</linearGradient>
<linearGradient id="paint13_linear_207_1425" x1="19.8053" y1="17.883" x2="27.0699" y2="11.8332" gradientUnits="userSpaceOnUse">
<stop stop-color="white"/>
<stop offset="1" stop-color="white" stop-opacity="0"/>
</linearGradient>
<linearGradient id="paint14_linear_207_1425" x1="15.6478" y1="23.9298" x2="3.19228" y2="22.7146" gradientUnits="userSpaceOnUse">
<stop stop-color="#645AFF"/>
<stop offset="0.520746" stop-color="#E40C5B"/>
<stop offset="0.985908" stop-color="#FF4C3B"/>
</linearGradient>
<linearGradient id="paint15_linear_207_1425" x1="5.46067" y1="14.1297" x2="10.8517" y2="11.834" gradientUnits="userSpaceOnUse">
<stop stop-color="white"/>
<stop offset="1" stop-color="white" stop-opacity="0"/>
</linearGradient>
<linearGradient id="paint16_linear_207_1425" x1="30.0172" y1="15.7756" x2="17.567" y2="14.565" gradientUnits="userSpaceOnUse">
<stop stop-color="#645AFF"/>
<stop offset="0.520746" stop-color="#E40C5B"/>
<stop offset="0.985908" stop-color="#FF4C3B"/>
</linearGradient>
<linearGradient id="paint17_linear_207_1425" x1="19.8324" y1="5.97419" x2="25.2196" y2="3.67966" gradientUnits="userSpaceOnUse">
<stop stop-color="white"/>
<stop offset="1" stop-color="white" stop-opacity="0"/>
</linearGradient>
<clipPath id="clip0_207_1425">
<rect width="19.7475" height="20.6452" fill="white" transform="translate(6.09023 5.67749)"/>
</clipPath>
</defs>
</svg>
