<svg width="180" height="176" viewBox="0 0 180 176" fill="none" xmlns="http://www.w3.org/2000/svg">
<ellipse cx="87.2727" cy="87.6315" rx="81.8182" ry="82.1546" fill="url(#paint0_linear_17_145)" fill-opacity="0.2"/>
<ellipse cx="87.2727" cy="87.6315" rx="81.8182" ry="82.1546" fill="url(#paint1_linear_17_145)" fill-opacity="0.2"/>
<ellipse cx="87.2727" cy="87.6315" rx="81.8182" ry="82.1546" stroke="url(#paint2_linear_17_145)"/>
<ellipse cx="87.2727" cy="87.6315" rx="81.8182" ry="82.1546" stroke="url(#paint3_linear_17_145)" stroke-opacity="0.2"/>
<ellipse cx="87.2727" cy="87.6315" rx="81.8182" ry="82.1546" fill="#FFD8E5"/>
<ellipse cx="87.2727" cy="87.6315" rx="81.8182" ry="82.1546" stroke="url(#paint4_linear_17_145)" stroke-width="4"/>
<ellipse cx="87.2727" cy="87.6315" rx="81.8182" ry="82.1546" stroke="url(#paint5_linear_17_145)" stroke-opacity="0.2" stroke-width="4"/>
<g clip-path="url(#clip0_17_145)">
<path d="M87.0791 55.8369C98.1304 55.8369 107.089 50.6938 107.089 44.3494C107.089 38.005 98.1304 32.8618 87.0791 32.8618C76.0277 32.8618 67.0688 38.005 67.0688 44.3494C67.0688 50.6938 76.0277 55.8369 87.0791 55.8369Z" fill="url(#paint6_linear_17_145)"/>
<path d="M87.0791 55.8369C98.1304 55.8369 107.089 50.6938 107.089 44.3494C107.089 38.005 98.1304 32.8618 87.0791 32.8618C76.0277 32.8618 67.0688 38.005 67.0688 44.3494C67.0688 50.6938 76.0277 55.8369 87.0791 55.8369Z" fill="url(#paint7_linear_17_145)" fill-opacity="0.2"/>
<path d="M87.0791 142.394C98.1304 142.394 107.089 137.25 107.089 130.906C107.089 124.562 98.1304 119.418 87.0791 119.418C76.0277 119.418 67.0688 124.562 67.0688 130.906C67.0688 137.25 76.0277 142.394 87.0791 142.394Z" fill="url(#paint8_linear_17_145)"/>
<path d="M87.0791 142.394C98.1304 142.394 107.089 137.25 107.089 130.906C107.089 124.562 98.1304 119.418 87.0791 119.418C76.0277 119.418 67.0688 124.562 67.0688 130.906C67.0688 137.25 76.0277 142.394 87.0791 142.394Z" fill="url(#paint9_linear_17_145)" fill-opacity="0.2"/>
<path d="M59.1933 71.7384C64.719 62.2916 64.6831 52.0601 59.1132 48.8858C53.5433 45.7114 44.5485 50.7963 39.0229 60.2431C33.4972 69.69 33.533 79.9215 39.103 83.0958C44.6729 86.2702 53.6676 81.1853 59.1933 71.7384Z" fill="url(#paint10_linear_17_145)"/>
<path d="M59.1933 71.7384C64.719 62.2916 64.6831 52.0601 59.1132 48.8858C53.5433 45.7114 44.5485 50.7963 39.0229 60.2431C33.4972 69.69 33.533 79.9215 39.103 83.0958C44.6729 86.2702 53.6676 81.1853 59.1933 71.7384Z" fill="url(#paint11_linear_17_145)" fill-opacity="0.2"/>
<path d="M135.127 115.011C140.652 105.565 140.62 95.3349 135.053 92.1627C129.487 88.9905 120.495 94.0771 114.97 103.524C109.444 112.971 109.477 123.2 115.043 126.373C120.609 129.545 129.601 124.458 135.127 115.011Z" fill="url(#paint12_linear_17_145)"/>
<path d="M135.127 115.011C140.652 105.565 140.62 95.3349 135.053 92.1627C129.487 88.9905 120.495 94.0771 114.97 103.524C109.444 112.971 109.477 123.2 115.043 126.373C120.609 129.545 129.601 124.458 135.127 115.011Z" fill="url(#paint13_linear_17_145)" fill-opacity="0.2"/>
<path d="M59.116 126.37C64.686 123.196 64.7218 112.964 59.1961 103.517C53.6705 94.0706 44.6757 88.9857 39.1058 92.1601C33.5358 95.3344 33.5 105.566 39.0257 115.013C44.5513 124.46 53.5461 129.544 59.116 126.37Z" fill="url(#paint14_linear_17_145)"/>
<path d="M59.116 126.37C64.686 123.196 64.7218 112.964 59.1961 103.517C53.6705 94.0706 44.6757 88.9857 39.1058 92.1601C33.5358 95.3344 33.5 105.566 39.0257 115.013C44.5513 124.46 53.5461 129.544 59.116 126.37Z" fill="url(#paint15_linear_17_145)" fill-opacity="0.2"/>
<path d="M135.058 83.0984C140.624 79.9262 140.657 69.6964 135.131 60.2496C129.606 50.8027 120.614 45.7161 115.048 48.8883C109.482 52.0605 109.449 62.2903 114.975 71.7371C120.5 81.184 129.492 86.2706 135.058 83.0984Z" fill="url(#paint16_linear_17_145)"/>
<path d="M135.058 83.0984C140.624 79.9262 140.657 69.6964 135.131 60.2496C129.606 50.8027 120.614 45.7161 115.048 48.8883C109.482 52.0605 109.449 62.2903 114.975 71.7371C120.5 81.184 129.492 86.2706 135.058 83.0984Z" fill="url(#paint17_linear_17_145)" fill-opacity="0.2"/>
</g>
<path d="M178 142.401C178 156.429 166.677 167.786 152.727 167.786C138.777 167.786 127.455 156.429 127.455 142.401C127.455 128.374 138.777 117.016 152.727 117.016C166.677 117.016 178 128.374 178 142.401Z" fill="#F1F0FF" stroke="#645AFF" stroke-width="4"/>
<path d="M145.636 153.355L162 153.355V147.715H150.985L151.091 131.447H145.636V153.355Z" fill="#645AFF"/>
<defs>
<linearGradient id="paint0_linear_17_145" x1="235.398" y1="235.784" x2="6.0057" y2="-43.9939" gradientUnits="userSpaceOnUse">
<stop stop-color="#645AFF"/>
<stop offset="0.520746" stop-color="#E40C5B"/>
<stop offset="0.985908" stop-color="#FF4C3B"/>
</linearGradient>
<linearGradient id="paint1_linear_17_145" x1="92.9318" y1="-62.0268" x2="302.754" y2="-16.1169" gradientUnits="userSpaceOnUse">
<stop stop-color="white"/>
<stop offset="1" stop-color="white" stop-opacity="0"/>
</linearGradient>
<linearGradient id="paint2_linear_17_145" x1="235.398" y1="235.784" x2="6.0057" y2="-43.9939" gradientUnits="userSpaceOnUse">
<stop stop-color="#645AFF"/>
<stop offset="0.520746" stop-color="#E40C5B"/>
<stop offset="0.985908" stop-color="#FF4C3B"/>
</linearGradient>
<linearGradient id="paint3_linear_17_145" x1="92.9318" y1="-62.0268" x2="302.754" y2="-16.1169" gradientUnits="userSpaceOnUse">
<stop stop-color="white"/>
<stop offset="1" stop-color="white" stop-opacity="0"/>
</linearGradient>
<linearGradient id="paint4_linear_17_145" x1="235.398" y1="235.784" x2="6.0057" y2="-43.9939" gradientUnits="userSpaceOnUse">
<stop stop-color="#645AFF"/>
<stop offset="0.520746" stop-color="#E40C5B"/>
<stop offset="0.985908" stop-color="#FF4C3B"/>
</linearGradient>
<linearGradient id="paint5_linear_17_145" x1="92.9318" y1="-62.0268" x2="302.754" y2="-16.1169" gradientUnits="userSpaceOnUse">
<stop stop-color="white"/>
<stop offset="1" stop-color="white" stop-opacity="0"/>
</linearGradient>
<linearGradient id="paint6_linear_17_145" x1="123.306" y1="65.0652" x2="98.1641" y2="11.4311" gradientUnits="userSpaceOnUse">
<stop stop-color="#645AFF"/>
<stop offset="0.520746" stop-color="#E40C5B"/>
<stop offset="0.985908" stop-color="#FF4C3B"/>
</linearGradient>
<linearGradient id="paint7_linear_17_145" x1="88.4631" y1="23.4229" x2="135.367" y2="41.373" gradientUnits="userSpaceOnUse">
<stop stop-color="white"/>
<stop offset="1" stop-color="white" stop-opacity="0"/>
</linearGradient>
<linearGradient id="paint8_linear_17_145" x1="123.306" y1="151.622" x2="98.1641" y2="97.9878" gradientUnits="userSpaceOnUse">
<stop stop-color="#645AFF"/>
<stop offset="0.520746" stop-color="#E40C5B"/>
<stop offset="0.985908" stop-color="#FF4C3B"/>
</linearGradient>
<linearGradient id="paint9_linear_17_145" x1="88.4631" y1="109.98" x2="135.367" y2="127.93" gradientUnits="userSpaceOnUse">
<stop stop-color="white"/>
<stop offset="1" stop-color="white" stop-opacity="0"/>
</linearGradient>
<linearGradient id="paint10_linear_17_145" x1="85.4086" y1="45.3885" x2="25.7105" y2="40.541" gradientUnits="userSpaceOnUse">
<stop stop-color="#645AFF"/>
<stop offset="0.520746" stop-color="#E40C5B"/>
<stop offset="0.985908" stop-color="#FF4C3B"/>
</linearGradient>
<linearGradient id="paint11_linear_17_145" x1="31.4282" y1="54.3374" x2="69.9403" y2="22.383" gradientUnits="userSpaceOnUse">
<stop stop-color="white"/>
<stop offset="1" stop-color="white" stop-opacity="0"/>
</linearGradient>
<linearGradient id="paint12_linear_17_145" x1="161.337" y1="88.6585" x2="101.672" y2="83.7978" gradientUnits="userSpaceOnUse">
<stop stop-color="#645AFF"/>
<stop offset="0.520746" stop-color="#E40C5B"/>
<stop offset="0.985908" stop-color="#FF4C3B"/>
</linearGradient>
<linearGradient id="paint13_linear_17_145" x1="107.381" y1="97.6214" x2="145.897" y2="65.6781" gradientUnits="userSpaceOnUse">
<stop stop-color="white"/>
<stop offset="1" stop-color="white" stop-opacity="0"/>
</linearGradient>
<linearGradient id="paint14_linear_17_145" x1="85.412" y1="129.705" x2="19.591" y2="123.31" gradientUnits="userSpaceOnUse">
<stop stop-color="#645AFF"/>
<stop offset="0.520746" stop-color="#E40C5B"/>
<stop offset="0.985908" stop-color="#FF4C3B"/>
</linearGradient>
<linearGradient id="paint15_linear_17_145" x1="31.5824" y1="77.7079" x2="60.1048" y2="65.6122" gradientUnits="userSpaceOnUse">
<stop stop-color="white"/>
<stop offset="1" stop-color="white" stop-opacity="0"/>
</linearGradient>
<linearGradient id="paint16_linear_17_145" x1="161.342" y1="86.4408" x2="95.5482" y2="80.0697" gradientUnits="userSpaceOnUse">
<stop stop-color="#645AFF"/>
<stop offset="0.520746" stop-color="#E40C5B"/>
<stop offset="0.985908" stop-color="#FF4C3B"/>
</linearGradient>
<linearGradient id="paint17_linear_17_145" x1="107.524" y1="34.4364" x2="136.026" y2="22.3464" gradientUnits="userSpaceOnUse">
<stop stop-color="white"/>
<stop offset="1" stop-color="white" stop-opacity="0"/>
</linearGradient>
<clipPath id="clip0_17_145">
<rect width="104.348" height="109.539" fill="white" transform="translate(34.9091 32.8618)"/>
</clipPath>
</defs>
</svg>
