<svg width="32" height="32" viewBox="0 0 32 32" fill="none" xmlns="http://www.w3.org/2000/svg">
<circle cx="16" cy="16" r="16" fill="#EBEEF5"/>
<path d="M21.5386 16.1539C21.5386 19.2128 19.0589 21.6925 16.0001 21.6925C12.9412 21.6925 10.4615 19.2128 10.4615 16.1539C10.4615 13.0951 12.9412 10.6154 16.0001 10.6154C19.0589 10.6154 21.5386 13.0951 21.5386 16.1539Z" fill="#C4C4C4"/>
<path d="M19.6926 16.1539C19.6926 18.1932 18.0394 19.8463 16.0002 19.8463C13.961 19.8463 12.3079 18.1932 12.3079 16.1539C12.3079 14.1147 13.961 12.4616 16.0002 12.4616C18.0394 12.4616 19.6926 14.1147 19.6926 16.1539Z" fill="white"/>
<line x1="6" y1="16" x2="11" y2="16" stroke="#C4C4C4" stroke-width="2"/>
<circle cx="5" cy="16.0001" r="2" transform="rotate(-90 5 16.0001)" fill="#173DC9"/>
<line x1="21" y1="16" x2="25.6154" y2="16" stroke="#C4C4C4" stroke-width="2"/>
<circle cx="27" cy="16" r="2" transform="rotate(-90 27 16)" fill="#173DC9"/>
<line y1="-1" x2="4.61543" y2="-1" transform="matrix(-0.5 -0.866025 -0.866025 0.5 12.4916 12.7367)" stroke="#C4C4C4" stroke-width="2"/>
<circle r="1.80323" transform="matrix(0.866025 -0.5 -0.5 -0.866025 10.4633 7.46327)" fill="#173DC9"/>
<line x1="18.4573" y1="12.2367" x2="20.7651" y2="8.23961" stroke="#C4C4C4" stroke-width="2"/>
<circle cx="21.3517" cy="7.46327" r="1.80323" transform="rotate(-150 21.3517 7.46327)" fill="#173DC9"/>
<line x1="13.3576" y1="19.9615" x2="11.0499" y2="23.9586" stroke="#C4C4C4" stroke-width="2"/>
<circle cx="10.4633" cy="24.735" r="1.80323" transform="rotate(30 10.4633 24.735)" fill="#173DC9"/>
<line y1="-1" x2="4.61543" y2="-1" transform="matrix(0.5 0.866025 0.866025 -0.5 19.3234 19.4615)" stroke="#C4C4C4" stroke-width="2"/>
<circle r="1.80323" transform="matrix(-0.866025 0.5 0.5 0.866025 21.3517 24.735)" fill="#173DC9"/>
</svg>
