<svg width="32" height="32" viewBox="0 0 32 32" fill="none" xmlns="http://www.w3.org/2000/svg">
<path d="M32 16.0005C32 24.837 24.8366 32.0005 16 32.0005C7.16344 32.0005 0 24.837 0 16.0005C0 7.16393 7.16344 0.000488281 16 0.000488281C24.8366 0.000488281 32 7.16393 32 16.0005Z" fill="white"/>
<path fill-rule="evenodd" clip-rule="evenodd" d="M16 29.6005C23.5111 29.6005 29.6 23.5116 29.6 16.0005C29.6 8.48942 23.5111 2.40049 16 2.40049C8.48893 2.40049 2.4 8.48942 2.4 16.0005C2.4 23.5116 8.48893 29.6005 16 29.6005ZM16 32.0005C24.8366 32.0005 32 24.837 32 16.0005C32 7.16393 24.8366 0.000488281 16 0.000488281C7.16344 0.000488281 0 7.16393 0 16.0005C0 24.837 7.16344 32.0005 16 32.0005Z" fill="url(#paint0_linear_10_10032)"/>
<path d="M13.3128 24.0005C12.5878 24.0005 12 23.4127 12 22.6876V11.2005C12 10.3168 12.7163 9.60046 13.6 9.60046H17.3128C18.4615 9.60046 19.412 9.79246 20.1641 10.1765C20.9162 10.5605 21.4769 11.0885 21.8462 11.7605C22.2154 12.4325 22.4 13.1868 22.4 14.0233C22.4 14.8187 22.2222 15.5525 21.8667 16.2245C21.5111 16.8827 20.9573 17.4176 20.2051 17.829C19.453 18.2267 18.4889 18.4256 17.3128 18.4256H15.4256C14.9838 18.4256 14.6256 18.7838 14.6256 19.2256V22.6876C14.6256 23.4127 14.0379 24.0005 13.3128 24.0005ZM14.6256 15.4862C14.6256 15.928 14.9838 16.2862 15.4256 16.2862H17.1487C18.065 16.2862 18.7214 16.0873 19.1179 15.6896C19.5282 15.2782 19.7333 14.7227 19.7333 14.0233C19.7333 13.3102 19.5282 12.7548 19.1179 12.357C18.7214 11.9456 18.065 11.7399 17.1487 11.7399H15.4256C14.9838 11.7399 14.6256 12.0981 14.6256 12.5399V15.4862Z" fill="#2F2F2F"/>
<defs>
<linearGradient id="paint0_linear_10_10032" x1="30.0469" y1="4.23486" x2="3.35937" y2="26.9849" gradientUnits="userSpaceOnUse">
<stop stop-color="#07DAFF"/>
<stop offset="0.331972" stop-color="#F9C778"/>
<stop offset="0.715624" stop-color="#F029A7"/>
<stop offset="1" stop-color="#501BF2"/>
</linearGradient>
</defs>
</svg>
