<?xml version="1.0" encoding="UTF-8"?>
<svg width="300px" height="300px" viewBox="0 0 300 300" version="1.1" xmlns="http://www.w3.org/2000/svg" xmlns:xlink="http://www.w3.org/1999/xlink">
    <title>taiKSM</title>
    <g id="页面-1" stroke="none" stroke-width="1" fill="none" fill-rule="evenodd">
        <g id="taiKSM" fill-rule="nonzero">
            <g id="编组">
                <circle id="椭圆形" fill="#FFFFFF" cx="150" cy="150" r="149"></circle>
                <path d="M150,0 C67.2,0 0,67.2 0,150 C0,232.8 67.2,300 150,300 C232.8,300 300,232.8 300,150 C300,67.2 232.8,0 150,0 L150,0 Z" id="路径" fill="#B026CF"></path>
            </g>
            <path d="M189.8,49.4 C187.8,47.9 185.5,45.8 181.3,45.3 C177.3,44.8 173.3,47.4 170.6,49.2 C167.9,50.9 162.7,56.1 160.6,57.7 C158.5,59.3 153,60.7 144.3,65.9 C135.6,71.2 101.2,93.2 101.2,93.2 L110.2,93.3 L70.4,113.8 L74.4,113.8 L68.7,118.1 C68.7,118.1 73.8,119.5 78,116.7 L78,117.9 C78,117.9 125.4,99.2 134.6,104 L129,105.7 C129.5,105.7 138.5,106.3 138.5,106.3 C138.7,108.2 139.4,110 140.3,111.6 C141.3,113.2 142.6,114.6 144.2,115.6 C149.6,119.1 149.8,121.2 149.8,121.2 C149.8,121.2 147,122.4 147,123.8 C147,123.8 151.2,122.5 155,122.6 C157.5,122.7 159.9,123.1 162.2,123.8 C162.2,123.8 161.9,122.2 158.2,121.2 C154.5,120.2 150.7,116.1 148.9,113.8 C147.8,112.4 147,110.7 146.8,108.9 C146.5,107.1 146.7,105.3 147.4,103.6 C148.7,100.2 153.3,98.3 162.7,93.5 C173.8,87.8 176.3,83.5 177.9,80.2 C179.5,76.9 181.8,70.3 183.1,67.2 C184.8,63.2 186.7,61.1 188.4,59.8 C190.1,58.5 197.5,55.8 197.5,55.8 C197.5,55.8 191.6,50.9 189.8,49.4 Z" id="路径" fill="#FFFFFF"></path>
            <g id="编组" transform="translate(84.200000, 140.600000)" fill="#FFFFFF">
                <path d="M68.8,18.5 C68.8,18.5 59.1,38.5 13.2,79.4 L68.8,18.5 Z" id="路径"></path>
                <path d="M68.8,37.2 C68.8,37.2 60.7,63.4 8.8,87.5 L68.8,37.2 Z" id="路径"></path>
                <path d="M68.8,55.7 C68.8,55.7 62.2,83.2 4.4,95.1 L68.8,55.7 Z" id="路径"></path>
                <path d="M68.8,74.4 C68.8,74.4 63.8,103.2 0,103.2 L68.8,74.4 Z" id="路径"></path>
                <path d="M68.8,-5.68434189e-14 C68.8,-5.68434189e-14 57.5,23.4 17.6,71.9 L68.8,-5.68434189e-14 C69.1,-5.68434189e-14 80.1,23.4 120,71.9 L68.8,-5.68434189e-14 Z" id="路径"></path>
                <path d="M68.8,18.5 C68.8,18.5 78.5,38.5 124.4,79.4 L68.8,18.5 Z" id="路径"></path>
                <path d="M68.8,37.2 C68.8,37.2 76.9,63.4 128.8,87.5 L68.8,37.2 Z" id="路径"></path>
                <path d="M68.8,55.7 C68.8,55.7 75.4,83.2 133.2,95.1 L68.8,55.7 Z" id="路径"></path>
                <path d="M68.8,74.4 C68.8,74.4 73.8,103.2 137.6,103.2 L68.8,74.4 Z" id="路径"></path>
            </g>
        </g>
    </g>
</svg>