<svg width="28" height="28" viewBox="0 0 28 28" fill="none" xmlns="http://www.w3.org/2000/svg">
<circle cx="14" cy="14" r="14" fill="#00A67D"/>
<path d="M14.4862 13.187C14.4862 12.8352 14.2967 12.5374 13.9989 12.375C13.7012 12.5374 13.5117 12.8352 13.5117 13.187C13.5117 13.5389 13.7012 13.8367 13.9989 13.9991C14.2967 13.8367 14.4862 13.5389 14.4862 13.187Z" fill="white"/>
<path d="M14.4862 14.8125C14.4862 14.4606 14.2967 14.1629 13.9989 14.0005C13.7012 14.1629 13.5117 14.4606 13.5117 14.8125C13.5117 15.1644 13.7012 15.4622 13.9989 15.6246C14.2967 15.4892 14.4862 15.1644 14.4862 14.8125Z" fill="white"/>
<path d="M13.187 14.4881C13.6355 14.4881 13.9991 14.27 13.9991 14.0009C13.9991 13.7318 13.6355 13.5137 13.187 13.5137C12.7386 13.5137 12.375 13.7318 12.375 14.0009C12.375 14.27 12.7386 14.4881 13.187 14.4881Z" fill="white"/>
<path d="M14.8101 14.4881C15.2586 14.4881 15.6221 14.27 15.6221 14.0009C15.6221 13.7318 15.2586 13.5137 14.8101 13.5137C14.3616 13.5137 13.998 13.7318 13.998 14.0009C13.998 14.27 14.3616 14.4881 14.8101 14.4881Z" fill="white"/>
<path d="M9.09973 15.9755C7.82764 15.9755 6.60968 15.2718 5.98717 14.1621L5.87891 13.9997L5.98717 13.8373C6.63675 12.7276 7.82764 12.0239 9.09973 12.0239C10.3718 12.0239 11.5898 12.7276 12.2123 13.8373L12.3205 13.9997L12.2123 14.1621C11.5898 15.2718 10.3989 15.9755 9.09973 15.9755ZM6.69088 13.9997C7.23219 14.8117 8.15243 15.2989 9.12679 15.2989C10.1012 15.2989 11.0214 14.8117 11.5627 13.9997C11.0214 13.1878 10.1012 12.7006 9.12679 12.7006C8.15243 12.7006 7.23219 13.1878 6.69088 13.9997Z" fill="white"/>
<path d="M18.9005 15.9755C17.6284 15.9755 16.4105 15.2718 15.7879 14.1621L15.6797 13.9997L15.7879 13.8373C16.4375 12.7276 17.6284 12.0239 18.9005 12.0239C20.1726 12.0239 21.3906 12.7276 22.0131 13.8373L22.1213 13.9997L22.0131 14.1621C21.3906 15.2718 20.1726 15.9755 18.9005 15.9755ZM16.4646 13.9997C17.0059 14.8117 17.9261 15.2989 18.9005 15.2989C19.8749 15.2989 20.7951 14.8117 21.3364 13.9997C20.7951 13.1878 19.8749 12.7006 18.9005 12.7006C17.9261 12.7006 17.0059 13.1878 16.4646 13.9997Z" fill="white"/>
<path d="M14.0012 22.1213L13.8388 22.0131C12.7291 21.3635 12.0254 20.1726 12.0254 18.9005C12.0254 17.6284 12.7291 16.4105 13.8388 15.7879L14.0012 15.6797L14.1636 15.7879C15.2733 16.4375 15.977 17.6284 15.977 18.9005C15.977 20.1726 15.2733 21.3906 14.1636 22.0131L14.0012 22.1213ZM14.0012 16.4646C13.1892 17.0059 12.702 17.9261 12.702 18.9005C12.702 19.8749 13.1892 20.7951 14.0012 21.3364C14.8132 20.7951 15.3003 19.8749 15.3003 18.9005C15.3003 17.9261 14.8132 17.0059 14.0012 16.4646Z" fill="white"/>
<path d="M14.0012 12.322L13.8388 12.2137C12.7291 11.5642 12.0254 10.3733 12.0254 9.10119C12.0254 7.8291 12.7291 6.61115 13.8388 5.98863L14.0012 5.88037L14.1636 5.98863C15.2733 6.63821 15.977 7.8291 15.977 9.10119C15.977 10.3733 15.2733 11.5912 14.1636 12.2137L14.0012 12.322ZM14.0012 6.69234C13.1892 7.23366 12.702 8.15389 12.702 9.12826C12.702 10.1026 13.1892 11.0229 14.0012 11.5642C14.8132 11.0229 15.3003 10.1026 15.3003 9.12826C15.3003 8.12683 14.8132 7.23366 14.0012 6.69234Z" fill="white"/>
<path d="M10.0472 16.5437C9.53286 17.058 9.34338 17.8159 9.53286 18.4656C10.2096 18.655 10.9404 18.4656 11.4547 17.9513C11.969 17.437 12.1585 16.6791 11.969 16.0294C11.3194 15.84 10.5614 16.0294 10.0472 16.5437Z" fill="white"/>
<path d="M16.5452 17.9513C17.0595 18.4656 17.8174 18.655 18.467 18.4656C18.6565 17.7889 18.467 17.058 17.9527 16.5437C17.4384 16.0294 16.6805 15.84 16.0309 16.0294C15.8414 16.6791 16.0309 17.437 16.5452 17.9513Z" fill="white"/>
<path d="M10.0472 11.4591C9.53286 10.9448 9.34338 10.1869 9.53286 9.53726C10.2096 9.34778 10.9404 9.53725 11.4547 10.0515C11.969 10.5658 12.1585 11.3237 11.969 11.9734C11.3194 12.1629 10.5614 11.9734 10.0472 11.4591Z" fill="white"/>
<path d="M16.5452 10.0515C17.0595 9.53725 17.8174 9.34778 18.467 9.53726C18.6565 10.214 18.467 10.9448 17.9527 11.4591C17.4384 11.9734 16.6805 12.1629 16.0309 11.9734C15.8414 11.3237 16.0309 10.5658 16.5452 10.0515Z" fill="white"/>
</svg>
